<?xml version="1.0" encoding="utf-8"?>
<!-- Generator: Adobe Illustrator 18.1.1, SVG Export Plug-In . SVG Version: 6.00 Build 0)  -->
<svg version="1.1" id="Слой_1" xmlns="http://www.w3.org/2000/svg" xmlns:xlink="http://www.w3.org/1999/xlink" x="0px" y="0px"
	 viewBox="0 0 43.9 43.9" enable-background="new 0 0 43.9 43.9" xml:space="preserve">
<path fill="#0D0F0F" d="M43.9,40.8l-5.2-5c3-3.6,4.8-8.2,4.8-13.3c0-11.6-9.8-21.1-21.8-21.1S0,10.9,0,22.5s9.8,21.1,21.8,21.1
	c5.2,0,10-1.8,13.8-4.7l5.2,5L43.9,40.8z M21.7,42.2c-11.2,0-20.4-8.9-20.4-19.7S10.5,2.7,21.7,2.7s20.4,8.9,20.4,19.7
	c0,4.6-1.7,8.9-4.4,12.3l-4.5-4.4c1.7-2.2,2.6-4.9,2.6-7.8C35.8,15,29.5,9,21.8,9s-14,6.1-14,13.5S14.1,36,21.8,36
	c3,0,5.9-1,8.2-2.6l4.5,4.4C31,40.6,26.6,42.2,21.7,42.2z M21.7,34.6c-6.9,0-12.5-5.4-12.5-12.1s5.6-12.1,12.5-12.1
	s12.5,5.4,12.5,12.1S28.7,34.6,21.7,34.6z"/>
</svg>
