<?xml version="1.0" encoding="utf-8"?>
<!-- Generator: Adobe Illustrator 18.1.1, SVG Export Plug-In . SVG Version: 6.00 Build 0)  -->
<svg version="1.1" id="Слой_1" xmlns="http://www.w3.org/2000/svg" xmlns:xlink="http://www.w3.org/1999/xlink" x="0px" y="0px"
	 viewBox="0 0 44.9 37.3" enable-background="new 0 0 44.9 37.3" xml:space="preserve">
<path fill="#0D0F0F" d="M40.9,12H30.6l2.5-1.9V2.4L29,0.3H15.6l-4.1,2.2v7.7l2.4,1.9H4.1L0,14.2v7.7l4.1,3.3h8.8L11.4,26v7.7
	l4.1,3.3h13.2l4.3-3.3V26l-1.4-0.8h9l4.3-3.3v-7.7L40.9,12z M4.1,23.1l-2.7-1.9v-6l2.7-1.2V23.1z M17,23.8V13.5h10.6v10.3H17z
	 M29,2.1l2.7,1.2v6L29,11.3V2.1z M17,1.7h10.6V12H17V1.7z M12.9,3.3l2.7-1.2v9.2l-2.7-1.9V3.3z M5.5,13.5h10v10.3h-10V13.5z
	 M15.6,34.9L12.9,33v-6l2.7-1.2V34.9z M27.6,35.6H17V25.3h10.6V35.6z M31.7,33L29,34.9v-9.2l2.7,1.2V33z M39.5,23.8H29V13.5h10.4
	V23.8z M43.6,21.2l-2.7,1.9v-9.2l2.7,1.2V21.2z"/>
</svg>
