<?xml version="1.0" encoding="utf-8"?>
<!-- Generator: Adobe Illustrator 18.1.1, SVG Export Plug-In . SVG Version: 6.00 Build 0)  -->
<svg version="1.1" id="Слой_1" xmlns="http://www.w3.org/2000/svg" xmlns:xlink="http://www.w3.org/1999/xlink" x="0px" y="0px"
	 viewBox="0 0 27.6 37.7" enable-background="new 0 0 27.6 37.7" xml:space="preserve">
<g>
	<path fill="#0D0F0F" d="M13.9,10.9c-1.6,0-2.9,1.3-2.9,2.9s1.3,2.9,2.9,2.9s2.9-1.3,2.9-2.9S15.5,10.9,13.9,10.9z M13.9,15.3
		c-0.8,0-1.4-0.6-1.4-1.4c0-0.8,0.6-1.4,1.4-1.4c0.8,0,1.4,0.6,1.4,1.4C15.3,14.6,14.7,15.3,13.9,15.3z"/>
	<path fill="#0D0F0F" d="M13.9,8.6c-2.9,0-5.3,2.4-5.3,5.3s2.4,5.3,5.3,5.3s5.3-2.4,5.3-5.3S16.8,8.6,13.9,8.6z M13.9,17.6
		c-2.1,0-3.8-1.7-3.8-3.8s1.7-3.8,3.8-3.8s3.8,1.7,3.8,3.8S16,17.6,13.9,17.6z"/>
	<path fill="#0D0F0F" d="M27.6,13.8C27.6,6.2,21.5,0,13.8,0S0,6.2,0,13.8c0,5.9,3.7,10.9,9,12.9v6.7l3.8,4.2h2.3l3.5-4.2v-6.7
		C24,24.8,27.6,19.7,27.6,13.8z M14.5,36.2h-1l-1.3-1.4h3.5L14.5,36.2z M17.3,32h-6.8v-1.7h6.8V32z M17.3,29h-6.8v-1.8
		c1.1,0.3,2.2,0.4,3.4,0.4s2.3-0.1,3.5-0.4L17.3,29L17.3,29z M13.9,26.2c-6.8,0-12.4-5.5-12.4-12.4S7.1,1.4,13.9,1.4
		S26.3,7,26.3,13.8S20.7,26.2,13.9,26.2z"/>
	<path fill="#0D0F0F" d="M22.5,12c-0.6-0.6-1.2-1.9-1.2-2.8c0-1.4-1.2-2.7-2.7-2.7c-0.9,0-2.2-0.6-2.8-1.2c-1-1-2.7-1-3.7,0
		C11.4,6,10.2,6.6,9.3,6.6c-1.4,0-2.7,1.2-2.7,2.7c0,0.9-0.6,2.2-1.2,2.8c-1,1-1,2.7,0,3.7c0.6,0.6,1.2,1.9,1.2,2.8
		c0,1.4,1.2,2.7,2.7,2.7c0.9,0,2.2,0.6,2.8,1.2c0.5,0.5,1.2,0.8,1.9,0.8c0.7,0,1.4-0.3,1.9-0.8c0.6-0.6,1.9-1.2,2.8-1.2
		c1.4,0,2.7-1.2,2.7-2.7c0-0.9,0.6-2.2,1.2-2.8C23.5,14.8,23.5,13.1,22.5,12z M21.5,14.8c-0.9,0.9-1.6,2.6-1.6,3.8
		c0,0.6-0.6,1.2-1.2,1.2c-1.2,0-3,0.7-3.8,1.6c-0.4,0.4-1.3,0.4-1.7,0c-0.9-0.9-2.6-1.6-3.8-1.6c-0.6,0-1.2-0.6-1.2-1.2
		c0-1.2-0.7-3-1.6-3.8C6,14.3,6,13.5,6.5,13c0.9-0.9,1.6-2.6,1.6-3.8C8.1,8.6,8.6,8,9.3,8c1.2,0,3-0.7,3.8-1.6C13.3,6.2,13.6,6,14,6
		c0.4,0,0.6,0.1,0.9,0.4C15.7,7.3,17.4,8,18.6,8c0.6,0,1.2,0.6,1.2,1.2c0,1.2,0.7,3,1.6,3.8C22,13.5,22,14.3,21.5,14.8z"/>
</g>
</svg>
