<?xml version="1.0" encoding="utf-8"?>
<!-- Generator: Adobe Illustrator 18.1.1, SVG Export Plug-In . SVG Version: 6.00 Build 0)  -->
<svg version="1.1" id="Слой_1" xmlns="http://www.w3.org/2000/svg" xmlns:xlink="http://www.w3.org/1999/xlink" x="0px" y="0px"
	 viewBox="0 0 34.6 33.9" enable-background="new 0 0 34.6 33.9" xml:space="preserve">
<g>
	<path fill="#0D0F0F" d="M20.7,25.2v-6.4c0-1.2,0.9-2.2,2.2-2.2h9.8v-5.5c0-0.8-0.6-1.4-1.4-1.4H1.8c-0.8,0-1.4,0.6-1.4,1.4v21.3
		c0,0.8,0.6,1.4,1.4,1.4h29.4c0.8,0,1.4-0.6,1.4-1.4v-5.1h-9.8C21.7,27.4,20.7,26.3,20.7,25.2z"/>
	<path fill="#0D0F0F" d="M29,8.7l-0.9-3.5c-0.2-0.8-1-1.2-1.7-1L8.6,8.8L29,8.7z"/>
	<path fill="#0D0F0F" d="M20,1.6c-0.4-0.6-1.1-0.8-1.7-0.5L4.5,8.7l17-4.5L20,1.6z"/>
	<path fill="#0D0F0F" d="M32.8,17.3h-9.9c-0.8,0-1.4,0.6-1.4,1.4v6.4c0,0.8,0.6,1.4,1.4,1.4h9.9c0.8,0,1.4-0.6,1.4-1.4v-6.4
		C34.2,18,33.6,17.3,32.8,17.3z M26,23.7c-1,0-1.8-0.8-1.8-1.8c0-1,0.8-1.8,1.8-1.8s1.8,0.8,1.8,1.8C27.8,22.8,27,23.7,26,23.7z"/>
</g>
</svg>
