<?xml version="1.0" encoding="utf-8"?>
<!-- Generator: Adobe Illustrator 18.1.1, SVG Export Plug-In . SVG Version: 6.00 Build 0)  -->
<svg version="1.1" id="Слой_1" xmlns="http://www.w3.org/2000/svg" xmlns:xlink="http://www.w3.org/1999/xlink" x="0px" y="0px"
	 viewBox="0 0 43.5 44.9" enable-background="new 0 0 43.5 44.9" xml:space="preserve">
<g>
	<path fill="#0D0F0F" d="M22,0.6c-12,0-21.8,9.8-21.8,21.8S10,44.2,22,44.2s21.7-9.9,21.7-21.8S33.9,0.6,22,0.6z M22,42.7
		c-11.2,0-20.4-9.1-20.4-20.4S10.8,2.1,22,2.1s20.3,9.1,20.3,20.4S33.2,42.7,22,42.7z"/>
	<path fill="#0D0F0F" d="M33.4,13.6H11c-1,0-1.8,0.8-1.8,1.8v14.3c0,1,0.8,1.8,1.8,1.8h22.4c1,0,1.8-0.8,1.8-1.8V15.4
		C35.2,14.4,34.4,13.6,33.4,13.6z M33.4,14.4c0.1,0,0.1,0,0.1,0l-11.4,8.8l-11.4-8.8c0.1,0,0.1,0,0.2,0H33.4z M34.5,29.8
		c0,0.6-0.5,1.1-1.1,1.1H11c-0.6,0-1.1-0.5-1.1-1.1V15.4c0-0.2,0.1-0.5,0.2-0.6l8.6,6.6l-5.3,4.8l0.5,0.5l5.3-4.9l2.7,2.1l0.1,0.1
		l2.8-2.2l5.3,4.9l0.5-0.5l-5.3-4.8l8.7-6.7c0.1,0.2,0.2,0.4,0.2,0.6L34.5,29.8L34.5,29.8z"/>
</g>
</svg>
