<?xml version="1.0" encoding="utf-8"?>
<!-- Generator: Adobe Illustrator 18.1.1, SVG Export Plug-In . SVG Version: 6.00 Build 0)  -->
<svg version="1.1" id="Слой_1" xmlns="http://www.w3.org/2000/svg" xmlns:xlink="http://www.w3.org/1999/xlink" x="0px" y="0px"
	 viewBox="0 0 67.7 213.8" enable-background="new 0 0 67.7 213.8" xml:space="preserve">
<polygon fill="#0D0F0F" points="67.7,101.4 67.7,99.9 34.5,99.9 34.5,61.7 67.6,61.7 67.6,60.3 34.5,60.3 34.5,21.4 67.6,21.4 
	67.6,19.9 34.5,19.9 34.5,0 33,0 33,19.9 0,19.9 0,21.4 33,21.4 33,80.4 0,80.4 0,81.9 33,81.9 33,140.2 0,140.2 0,141.6 33,141.6 
	33,213.8 34.5,213.8 34.5,141.6 67.6,141.6 67.6,140.2 34.5,140.2 34.5,101.4 "/>
</svg>
