<?xml version="1.0" encoding="utf-8"?>
<!-- Generator: Adobe Illustrator 18.1.1, SVG Export Plug-In . SVG Version: 6.00 Build 0)  -->
<svg version="1.1" id="Слой_1" xmlns="http://www.w3.org/2000/svg" xmlns:xlink="http://www.w3.org/1999/xlink" x="0px" y="0px"
	 viewBox="0 0 35.9 39.6" enable-background="new 0 0 35.9 39.6" xml:space="preserve">
<g>
	<path fill="#0D0F0F" d="M34.7,22.4L32.6,3.8c-0.1-1-1-1.7-2-1.6L2.8,5.4c-1,0.1-1.7,1-1.6,2l2.2,18.6c0.1,0.9,0.9,1.6,1.8,1.6
		c0.1,0,0.1,0,0.2,0l27.8-3.2C34.2,24.4,34.9,23.4,34.7,22.4z M33.1,23.7L5.3,27C4.7,27,4.1,26.6,4.1,26L1.9,7.4
		C1.8,6.8,2.3,6.2,2.8,6.2l27.8-3.2c0.1,0,0.1,0,0.1,0c0.6,0,1,0.4,1.1,0.9L34,22.5C34.1,23.2,33.7,23.7,33.1,23.7z"/>
	<path fill="#0D0F0F" d="M9,15c0.1,0,0.3,0,0.4,0c0.9-0.1,1.7-0.6,2.3-1.3c0.6-0.7,0.8-1.6,0.7-2.5c-0.2-1.9-1.9-3.2-3.8-3
		C7.7,8.3,6.9,8.8,6.3,9.5S5.5,11.1,5.6,12C5.8,13.7,7.2,15,9,15z M6.9,9.9C7.3,9.3,8,9,8.7,8.9c0.1,0,0.2,0,0.3,0
		c1.4,0,2.5,1,2.7,2.4c0.1,0.7-0.1,1.4-0.6,2c-0.4,0.6-1.1,0.9-1.8,1c-1.5,0.1-2.8-0.9-3-2.4C6.2,11.2,6.4,10.5,6.9,9.9z"/>
	<path fill="#0D0F0F" d="M6.2,17.5L7,24.2l6.8-0.8L13,16.7L6.2,17.5z M7.7,23.4L7,18.1l5.3-0.6l0.6,5.3L7.7,23.4z"/>
	
		<rect x="17.3" y="8.3" transform="matrix(-0.9932 0.116 -0.116 -0.9932 46.9726 14.6259)" fill="#0D0F0F" width="11.6" height="0.7"/>
	
		<rect x="17.8" y="12.2" transform="matrix(-0.9932 0.116 -0.116 -0.9932 48.4373 22.3038)" fill="#0D0F0F" width="11.6" height="0.7"/>
	
		<rect x="18.2" y="16" transform="matrix(-0.9933 0.1159 -0.1159 -0.9933 49.7287 29.9278)" fill="#0D0F0F" width="11.6" height="0.7"/>
	
		<rect x="24" y="14.5" transform="matrix(0.1153 0.9933 -0.9933 0.1153 41.7062 -6.2887)" fill="#0D0F0F" width="0.7" height="11.6"/>
</g>
</svg>
