<?xml version="1.0" encoding="utf-8"?>
<!-- Generator: Adobe Illustrator 18.1.1, SVG Export Plug-In . SVG Version: 6.00 Build 0)  -->
<svg version="1.1" id="Слой_1" xmlns="http://www.w3.org/2000/svg" xmlns:xlink="http://www.w3.org/1999/xlink" x="0px" y="0px"
	 viewBox="0 0 38.5 38.7" enable-background="new 0 0 38.5 38.7" xml:space="preserve">
<path fill="#0D0F0F" d="M26.2,0.3c-3.1-1.2-6.8,1.3-8.4,5.4c-0.1,0.4-0.2,0.9-0.2,1.7c-0.6-1.2-1.4-2.1-2.4-2.7
	c-1.2-0.9-2.4-1-3.5-0.5C11,4.6,10.5,5.2,10.1,6c-0.4,1-0.4,2.3-0.1,3.6C10,9.6,9.9,9.6,9.8,9.5c-4.1-1.5-8.4-0.1-9.5,3
	s1.3,6.8,5.4,8.4c0.2,0.1,0.5,0.1,0.8,0.1c-1.2,0.9-1.9,1.9-2.4,2.9c-0.3,0.9-0.3,1.7,0,2.4c0.5,1,1.6,1.7,3,1.9
	c0.9,0.1,1.8,0,2.8-0.3c-0.3,0.4-0.5,0.8-0.6,1.1c-1.5,4.1-0.1,8.4,3,9.5c3.1,1.2,6.8-1.3,8.4-5.4c0.1-0.3,0.2-0.8,0.2-1.4
	c0.5,0.7,1.2,1.3,1.8,1.7c1.2,0.9,2.4,1,3.5,0.5c0.7-0.4,1.2-0.9,1.6-1.8c0.4-0.9,0.4-2,0.1-3.2c0.3,0.2,0.6,0.4,0.8,0.4
	c4.1,1.5,8.4,0.1,9.5-3c1.2-3.1-1.3-6.8-5.4-8.4c-0.4-0.1-1.3-0.3-2.4-0.2c1.6-0.9,2.8-2.2,3.3-3.5c0.3-0.9,0.3-1.7,0-2.4
	c-0.6-1.4-2.5-2.1-4.7-1.8c0,0,0.1-0.1,0.1-0.1C30.7,5.6,29.3,1.4,26.2,0.3z M12.1,10.9c-0.7-1.6-0.9-3.3-0.5-4.5
	c0.2-0.5,0.4-0.9,0.8-1c0.7-0.4,1.7,0.1,2.1,0.4c0.9,0.6,1.7,1.7,2.3,2.9c0.4,0.8,0.7,3.4,0.1,4.8c0,0,0,0.1-0.1,0.1
	c-0.4,0.1-0.6,0.4-1,0.6c-0.4-0.1-1-0.4-1.8-1.1c-0.1-0.1-0.1-0.1-0.2-0.1c-0.5-0.7-1.2-1.4-1.8-1.9C12.1,11,12.1,10.9,12.1,10.9z
	 M23,20.2c-0.8,2.2-3.2,3.3-5.3,2.5c-2.2-0.8-3.3-3.2-2.5-5.3s3.2-3.3,5.3-2.5C22.7,15.6,23.8,18.1,23,20.2z M1.7,12.9
	c0.9-2.4,4.2-3.3,7.6-2.1c0.4,0.1,1.1,0.6,1.7,1.2c0.4,0.6,1.1,1.3,1.8,1.9c0.6,0.9,1.1,1.8,1.2,2.6c-0.1,0.1-0.1,0.2-0.1,0.4
	c-0.1,0.3-0.1,0.6-0.2,0.9c-1.4,1.7-6.3,1.9-7.3,1.6C2.9,18.1,0.9,15.2,1.7,12.9z M19.4,32.3c-1.2,3.4-4.1,5.4-6.5,4.5
	c-2.4-0.9-3.3-4.2-2.1-7.6c0.5-1.4,4.2-5.3,6.5-4.5C19.6,25.5,19.8,31.2,19.4,32.3z M26.5,31.3c-0.2,0.5-0.4,0.9-0.8,1
	c-0.7,0.4-1.7-0.1-2.1-0.4c-0.9-0.6-1.7-1.7-2.3-2.9c-0.4-0.8-0.7-3.4-0.1-4.8c0-0.1,0.1-0.2,0.1-0.3c0.3-0.1,0.5-0.2,0.8-0.4
	c0.4,0.1,1.1,0.4,1.9,1.1c0.2,0.1,0.4,0.3,0.6,0.5c0.4,0.6,0.9,1.3,1.5,1.8C26.7,28.6,26.9,30.2,26.5,31.3z M37,25.6
	c-0.9,2.4-4.2,3.3-7.6,2.1c-0.5-0.2-1.4-0.8-2.2-1.7c-0.3-0.5-0.9-1.2-1.6-1.9c-0.7-1.1-1.2-2.2-0.8-3c0.8-2.2,6.6-2.4,7.6-2.1
	C35.8,20.4,37.8,23.3,37,25.6z M32.5,12.2c0.1,0.4,0.1,0.8,0,1.3c-0.4,1.2-1.7,2.3-3.2,3.1c-0.5,0.2-1.8,0.4-3,0.4
	c-0.7,0-1.4-0.1-1.8-0.3c-0.1-0.4-0.4-0.8-0.6-1.2v-0.1c0.1-0.3,0.3-0.6,0.5-0.9c1.4-0.7,2.7-1.9,3.7-3.1
	C30.2,10.9,32,11.3,32.5,12.2z M27.1,10.4c-0.2,0.1-0.4,0.2-0.7,0.3c-0.7,0.4-2.1,1.6-3.1,2.9c-0.5,0.2-1,0.4-1.4,0.4
	c-0.3-0.1-0.5-0.3-0.9-0.4c-0.1-0.1-0.2-0.1-0.3-0.1c-1.7-1.5-1.8-6.3-1.4-7.3c1.2-3.4,4.1-5.4,6.5-4.5s3.3,4.2,2.1,7.6
	C27.7,9.5,27.4,9.9,27.1,10.4z"/>
</svg>
