<?xml version="1.0" encoding="utf-8"?>
<!-- Generator: Adobe Illustrator 18.1.1, SVG Export Plug-In . SVG Version: 6.00 Build 0)  -->
<svg version="1.1" id="Слой_1" xmlns="http://www.w3.org/2000/svg" xmlns:xlink="http://www.w3.org/1999/xlink" x="0px" y="0px"
	 viewBox="0 0 43.5 44.9" enable-background="new 0 0 43.5 44.9" xml:space="preserve">
<g>
	<path fill="#0D0F0F" d="M21.7,0.6c-12,0-21.8,9.8-21.8,21.8s9.8,21.8,21.8,21.8s21.8-9.8,21.8-21.8C43.5,10.5,33.7,0.6,21.7,0.6z
		 M21.7,42.9c-11.2,0-20.4-9.1-20.4-20.4S10.4,2.1,21.7,2.1S42,11.3,42,22.5S32.9,42.9,21.7,42.9z"/>
	<path fill="#0D0F0F" d="M19.5,36.8h4.9V16.3h-4.9V36.8z M20.2,17h3.5v19.1h-3.5V17z"/>
	<path fill="#0D0F0F" d="M19.5,13.7h4.9v-5h-4.9V13.7z M20.2,9.4h3.5V13h-3.5V9.4z"/>
</g>
</svg>
