<?xml version="1.0" encoding="utf-8"?>
<!-- Generator: Adobe Illustrator 18.1.1, SVG Export Plug-In . SVG Version: 6.00 Build 0)  -->
<svg version="1.1" id="Слой_1" xmlns="http://www.w3.org/2000/svg" xmlns:xlink="http://www.w3.org/1999/xlink" x="0px" y="0px"
	 viewBox="0 0 35.9 39.6" enable-background="new 0 0 35.9 39.6" xml:space="preserve">
<path fill="#0D0F0F" d="M30.6,14.8c-0.6-2-3.9-3.3-5.8-3.3h-0.4c-0.4,0-0.7,0-1.1,0c-1.7,0-2.2-0.3-2.3-0.5
	c-0.1-0.1-0.2-0.5,0.4-1.6c2.2-3.8,2.4-6.6,0.8-8.5C21.6,0.3,21.1,0,20.5,0c-1.5,0-2.4,1.9-3.7,5c-1.3,3.2-6,6.8-7.1,7.7
	c-1.6-0.4-4-0.9-5.5-0.9c-0.5,0-0.9,0.1-1.2,0.1C1.4,12.5-0.1,21.3,0,23.8c0.1,3,2.8,3,5.3,3.1c0.7,0,1.5,0,2.3,0.1
	c1.4,0.1,3.4,0.7,5.5,1.3c3,0.9,6.5,1.8,8.9,1.8h0.1c3.5-0.1,4.6-2.5,4.8-4.1c0.9-0.4,1.4-1,1.7-1.7c0.4-0.9,0.1-1.9-0.1-2.5
	c0.9-0.6,1.3-1.3,1.4-2.2c0.1-0.9-0.3-1.7-0.6-2.3C30.8,16.4,30.8,15.5,30.6,14.8z M1.6,23.8c-0.1-2.9,1.5-9.6,2.2-10.4
	c0.1,0,0.3-0.1,0.6-0.1c1.2,0,3.3,0.4,4.8,0.7L7.6,25.6c-0.7-0.1-1.4-0.1-2-0.1C2.7,25.4,1.7,25.3,1.6,23.8z M28.2,16.7l-0.8,0.5
	l0.6,0.6c0.2,0.2,0.9,1,0.8,1.7c-0.1,0.5-0.5,0.9-1.2,1.4L27,21.3l0.4,0.6c0,0,0.6,1.1,0.2,1.9c-0.2,0.5-0.6,0.9-1.3,1.1l-0.5,0.1
	v0.5c0,0.3-0.1,3.2-3.5,3.2h-0.1c-2.3,0-5.6-0.9-8.6-1.7c-1.7-0.5-3.4-0.9-4.8-1.2L10.6,14c1.2-0.9,6.2-4.7,7.7-8.4
	c0.4-1,1.7-4,2.3-4c0,0,0.2,0,0.6,0.4c0.8,0.9,1.5,2.5-1,6.8c-0.7,1.3-0.9,2.3-0.4,3c0.7,1.3,2.8,1.2,4.6,1.2h0.4
	c1.6,0,4.1,1.2,4.5,2.3C29.4,15.6,29,16.1,28.2,16.7z"/>
</svg>
