<?xml version="1.0" encoding="utf-8"?>
<!-- Generator: Adobe Illustrator 18.1.1, SVG Export Plug-In . SVG Version: 6.00 Build 0)  -->
<svg version="1.1" id="Слой_1" xmlns="http://www.w3.org/2000/svg" xmlns:xlink="http://www.w3.org/1999/xlink" x="0px" y="0px"
	 viewBox="0 0 43.5 43.5" enable-background="new 0 0 43.5 43.5" xml:space="preserve">
<g>
	<path fill="#0D0F0F" d="M21.7,0C9.8,0,0,9.7,0,21.7s9.7,21.7,21.7,21.7s21.7-9.7,21.7-21.7S33.7,0,21.7,0z M21.7,42
		C10.6,42,1.4,32.9,1.4,21.7S10.5,1.4,21.7,1.4S42,10.4,42,21.7S32.9,42,21.7,42z"/>
	<path fill="#0D0F0F" d="M21.7,32.8c-3.2,0-6-1.4-8.1-3.5c0.4-0.6,0.7-1.2,0.7-2c0-1.8-1.4-3.2-3.2-3.2s-3.2,1.4-3.2,3.2
		c0,1.8,1.4,3.2,3.2,3.2c0.5,0,0.9-0.1,1.4-0.3c2.3,2.4,5.5,4,9.1,4c2.5,0,4.8-0.7,6.8-2c-0.3-0.4-0.6-0.8-0.7-1.2
		C26.1,32.1,24,32.8,21.7,32.8z"/>
	<path fill="#0D0F0F" d="M10.7,21.2c0.2-4.8,3.5-8.9,8-10.2c0.4,1.2,1.7,2.1,3,2.1c1.8,0,3.2-1.4,3.2-3.2s-1.4-3.2-3.2-3.2
		c-1.7,0-3.1,1.3-3.2,3c-5.2,1.4-9.1,6-9.2,11.7c0.3-0.1,0.6-0.1,0.9-0.1C10.4,21.2,10.6,21.2,10.7,21.2z"/>
	<path fill="#0D0F0F" d="M33.8,24.6c0.2-0.9,0.4-1.9,0.4-2.9c0-4.4-2.3-8.3-5.8-10.5c-0.1,0.5-0.4,0.9-0.6,1.3c3,1.9,5,5.4,5,9.2
		c0,0.8-0.1,1.6-0.3,2.3C32.2,24,32,24,31.8,24c-1.8,0-3.2,1.4-3.2,3.2c0,1.8,1.4,3.2,3.2,3.2s3.2-1.4,3.2-3.2
		C35.2,26.1,34.7,25.2,33.8,24.6z"/>
</g>
</svg>
