<?xml version="1.0" encoding="utf-8"?>
<!-- Generator: Adobe Illustrator 18.1.1, SVG Export Plug-In . SVG Version: 6.00 Build 0)  -->
<svg version="1.1" id="Слой_1" xmlns="http://www.w3.org/2000/svg" xmlns:xlink="http://www.w3.org/1999/xlink" x="0px" y="0px"
	 viewBox="0 0 34.6 40.5" enable-background="new 0 0 34.6 40.5" xml:space="preserve">
<g>
	<path fill="#0D0F0F" d="M26.8,27.6c-5.5-2.2-4.9,1.5-9.6,1.5s-4-3.7-9.6-1.5S0,35.9,0,38.2s1.9,2.2,1.9,2.2h15.4h15.4
		c0,0,1.9,0.1,1.9-2.2C34.6,35.9,32.3,29.7,26.8,27.6z"/>
	<path fill="#0D0F0F" d="M20.3,25.1c2.7-1.6,5.5-5.2,5.5-11.4c0-9.4-8.6-9.4-8.6-9.4s-8.6,0-8.6,9.4c0,7.6,4.2,11.3,7.3,12.1
		c0.2-0.7,0.6-1.4,2.2-1.7C19.4,24,19.9,24.5,20.3,25.1z"/>
	<path fill="#0D0F0F" d="M7,20.2c0.9,0,1.2-0.9,1.2-3C8.1,15,7,9.4,9.8,6.3c2.7-3,4.9-3.4,7.5-3.4s4.8,0.4,7.5,3.4s1.7,8.7,1.7,10.9
		c-0.1,1.9,0.2,2.7,0.9,3c-0.6,4-7.6,5.5-7.6,5.5c-0.2-0.3-0.2-0.8-1.2-0.8c-0.9,0-1.9,1.4-0.6,2.7s2.1-0.6,2.1-0.6s5.5-1.4,7.4-2.9
		c1.2-1,1.4-2.8,1.4-4c1.9-0.5,4-2,4.2-4.5c0.3-3-4.2-4.1-4.2-4.1C28-0.4,17.3,0,17.3,0S6.6-0.4,5.8,11.4c0,0-4.5,1.1-4.2,4.1
		C1.9,18.6,4.9,20.2,7,20.2z"/>
</g>
</svg>
