<?xml version="1.0" encoding="utf-8"?>
<!-- Generator: Adobe Illustrator 18.1.1, SVG Export Plug-In . SVG Version: 6.00 Build 0)  -->
<svg version="1.1" id="Слой_1" xmlns="http://www.w3.org/2000/svg" xmlns:xlink="http://www.w3.org/1999/xlink" x="0px" y="0px"
	 viewBox="0 0 35.9 39.6" enable-background="new 0 0 35.9 39.6" xml:space="preserve">
<g>
	<path fill="#0D0F0F" d="M34,18.6l-1.7-2.3l2.6-8.7L13,1.1l-2.6,8.7l-2.7,1c-0.9,0.3-1.6,0.8-1.9,1.9L1.1,28.5
		c-0.4,1.1,0.3,2.2,1.4,2.6l12.4,3.7l12.4,3.7c1.1,0.4,2.2-0.3,2.6-1.4l4.7-15.8C34.8,20.1,34.5,19.3,34,18.6z M33.4,19.5l-2.3,0.9
		l0.9-2.8C32.4,18.1,33.3,19.4,33.4,19.5z M33.8,8.2l-3.7,12.5l-3.7,1.4l-14.1-4.2l-2.4-3.2l3.7-12.5L33.8,8.2z M22.7,23.5L14.5,21
		L13,19l12.1,3.6L22.7,23.5z M21.4,24l-3.7,1.4l-2.4-3.2L21.4,24z M10.1,11l-0.9,2.8l-1.4-1.9C7.8,11.8,9.3,11.3,10.1,11z M2,28.8
		L6.7,13c0.1-0.3,0.3-0.5,0.5-0.6l7.4,10.2L2,29C1.9,28.9,1.9,28.8,2,28.8z M27.5,37.6l-12.4-3.7L2.7,30.3c-0.3-0.1-0.5-0.3-0.6-0.5
		L15,23.2l2.4,3.2l3.7-1.4l7.3,12.5C28.1,37.7,27.8,37.7,27.5,37.6z M29.1,36.7c0,0.1-0.1,0.1-0.1,0.2l-7.1-12.2l11.8-4.5
		c0.1,0.3,0.1,0.6,0.1,0.8L29.1,36.7z"/>
	
		<rect x="14.3" y="5.4" transform="matrix(-0.9587 -0.2844 0.2844 -0.9587 29.5629 15.9189)" fill="#0D0F0F" width="3.2" height="0.8"/>
	
		<rect x="13.7" y="7.5" transform="matrix(-0.9587 -0.2844 0.2844 -0.9587 29.8156 20.1137)" fill="#0D0F0F" width="5.3" height="0.8"/>
	
		<rect x="19.2" y="12.8" transform="matrix(-0.9587 -0.2844 0.2844 -0.9587 37.8976 31.9406)" fill="#0D0F0F" width="4.1" height="0.8"/>
	<rect x="13" y="15.5" transform="matrix(0.9587 0.2844 -0.2844 0.9587 5.3556 -5.1689)" fill="#0D0F0F" width="15" height="0.8"/>
	
		<rect x="12.4" y="17.7" transform="matrix(0.9587 0.2844 -0.2844 0.9587 5.9758 -4.8961)" fill="#0D0F0F" width="15" height="0.8"/>
</g>
</svg>
