<?xml version="1.0" encoding="utf-8"?>
<!-- Generator: Adobe Illustrator 18.1.1, SVG Export Plug-In . SVG Version: 6.00 Build 0)  -->
<svg version="1.1" id="Слой_1" xmlns="http://www.w3.org/2000/svg" xmlns:xlink="http://www.w3.org/1999/xlink" x="0px" y="0px"
	 viewBox="0 0 43.5 44.9" enable-background="new 0 0 43.5 44.9" xml:space="preserve">
<g>
	<path fill="#0D0F0F" d="M21.7,0.8c-12,0-21.7,9.7-21.7,21.7s9.7,21.7,21.7,21.7s21.7-9.7,21.7-21.7S33.7,0.8,21.7,0.8z M21.7,42.7
		c-11.2,0-20.2-9.1-20.2-20.2S10.6,2.2,21.7,2.2S42,11.3,42,22.4S32.9,42.7,21.7,42.7z"/>
	<path fill="#0D0F0F" d="M30.6,27.5c-0.6-0.1-1.2-0.4-1.9-0.6c-1.9-0.6-2.2-1.6-2.1-2c0.2-0.1,0.4-0.4,0.5-0.5
		c3-3.2,2.6-8.9,2.4-12.4v-0.5c-0.1-1.2-0.5-2-1.4-2.7c-2-1.7-5.6-1.4-6.3-1.4c-0.7-0.1-4.3-0.3-6.3,1.4c-0.9,0.7-1.3,1.7-1.4,2.7
		v0.5c-0.2,3.5-0.6,9.2,2.4,12.4c0.1,0.2,0.4,0.4,0.5,0.5c0,0.4-0.1,1.4-2.1,2c-0.6,0.2-1.3,0.4-1.9,0.6c-2.4,0.7-4.8,1.4-5,3.7
		c-0.2,2.4,0,4.4,0,4.5l0.1,0.6h27.5l0.1-0.6c0-0.1,0.2-2.1,0-4.5C35.4,28.9,33,28.3,30.6,27.5z M15.5,12.2v-0.5
		c0.1-0.7,0.4-1.3,0.9-1.7c1.7-1.4,5.3-1,5.4-1l0.1-0.4L21.9,9c0,0,3.7-0.4,5.4,1c0.5,0.4,0.8,1,0.9,1.7v0.5c0.1,0.9,0.1,2,0.1,3.2
		c-0.5-1-1-1.7-1.1-1.8l-0.5-0.6l-0.6,0.4c-0.4,0.3-2.4,0.4-4.3,0.3v0.1v-0.1c-1.9,0.1-5.3-0.6-6.4,1.6
		C15.3,14.2,15.4,13.1,15.5,12.2z M15.8,20.3L15.8,20.3c-0.3-2.2,0.8-4.2,1.6-4.8c0.8-0.5,3.2-0.2,4.4-0.3c1.1,0.1,3.3,0.1,4.5-0.3
		c0.6,0.9,1.7,3,1.4,5.3l0,0c-0.3,1.2-0.9,2.4-1.7,3.2c-1,1.1-2.4,1.7-4.3,1.7c-1.9,0-3.3-0.6-4.3-1.7
		C16.7,22.6,16.1,21.5,15.8,20.3z M21.8,26.6L21.8,26.6L21.8,26.6c0.9,0,1.6-0.1,2.2-0.3l-2.2,2.6l-2.2-2.6
		C20.2,26.5,21,26.6,21.8,26.6L21.8,26.6C21.7,26.6,21.7,26.6,21.8,26.6z M19.3,35h-5.5v-2.4h-1.4V35h-3c-0.1-0.8-0.1-2.1,0.1-3.5
		c0.1-1.3,1.5-1.8,4-2.4c0.6-0.1,1.3-0.4,1.9-0.6c0.1-0.1,0.3-0.1,0.4-0.1c0.7,2.3,1.7,3.7,2.9,4.1c0.2,0.1,0.4,0.1,0.6,0.1V35z
		 M19.2,30.9l0.1,0.1C19.2,31,19.2,31,19.2,30.9c-0.5-0.1-1.4-0.8-2.2-3.3c0.4-0.3,0.6-0.6,0.9-0.9l2.4,2.7L19.2,30.9z M22.8,35
		h-2.1v-3.9l1-1.4l1,1.4L22.8,35L22.8,35z M25.7,26.6c0.2,0.3,0.5,0.6,0.9,0.9c-0.8,2.6-1.7,3.2-2.1,3.4c-0.1,0-0.1,0.1-0.2,0.1
		l0.1-0.1l-1.2-1.5L25.7,26.6z M34.2,35h-3v-2.4h-1.4V35h-5.5v-2.5c0.2,0,0.4-0.1,0.6-0.1c1.2-0.4,2.2-1.8,2.9-4.1
		c0.1,0.1,0.3,0.1,0.4,0.1c0.6,0.2,1.3,0.4,1.9,0.6c2.4,0.7,3.9,1.2,4,2.4C34.3,32.9,34.3,34.2,34.2,35z"/>
</g>
</svg>
