<?xml version="1.0" encoding="utf-8"?>
<!-- Generator: Adobe Illustrator 18.1.1, SVG Export Plug-In . SVG Version: 6.00 Build 0)  -->
<svg version="1.1" id="Слой_1" xmlns="http://www.w3.org/2000/svg" xmlns:xlink="http://www.w3.org/1999/xlink" x="0px" y="0px"
	 viewBox="0 0 35.9 39.6" enable-background="new 0 0 35.9 39.6" xml:space="preserve">
<g>
	<path fill="#0D0F0F" d="M4.3,5.5c0.6-1.2,2.4-3,4-4.2C9,0.7,7.7,0.2,7.5,0c-0.3-0.3-2.7,1.6-5,3.8C0.9,5.5,0,8.2,0,9.8
		c0,2.4,1.9,4.3,4.3,4.3s4.3-1.9,4.3-4.3C8.6,7.4,6.7,5.5,4.3,5.5z"/>
	<path fill="#0D0F0F" d="M14.5,5.7c0.6-1.2,2.4-3,4-4.2c0.6-0.5-0.6-1.1-0.9-1.2c-0.3-0.3-2.7,1.6-5,3.8c-1.7,1.7-2.5,4.3-2.5,6
		c0,2.4,1.9,4.3,4.3,4.3s4.3-1.9,4.3-4.3S16.8,5.7,14.5,5.7z"/>
</g>
</svg>
