<?xml version="1.0" encoding="utf-8"?>
<!-- Generator: Adobe Illustrator 18.1.1, SVG Export Plug-In . SVG Version: 6.00 Build 0)  -->
<svg version="1.1" id="Слой_1" xmlns="http://www.w3.org/2000/svg" xmlns:xlink="http://www.w3.org/1999/xlink" x="0px" y="0px"
	 viewBox="0 0 35.9 39.6" enable-background="new 0 0 35.9 39.6" xml:space="preserve">
<g>
	<path fill="#0D0F0F" d="M14.8,19.2c-2.8,0-5,2.2-5,5s2.2,5,5,5s5-2.2,5-5S17.6,19.2,14.8,19.2z M14.8,27.9c-2,0-3.6-1.6-3.6-3.6
		s1.6-3.6,3.6-3.6s3.6,1.6,3.6,3.6S16.8,27.9,14.8,27.9z"/>
	<path fill="#0D0F0F" d="M32.4,0h-13c-2,0-3.6,1.6-3.6,3.6v5.9h-3.5v2.8c-1.4,0.3-2.7,0.8-3.8,1.5l-1.9-1.9l-4,4l1.9,1.9
		c-0.7,1.2-1.2,2.4-1.5,3.8H0v5.7h3c0.4,1.3,0.9,2.5,1.6,3.6l-2.2,2.2l4,4l2.3-2.3c1.1,0.6,2.2,1.1,3.5,1.4v3.4h5.7v-3.5
		c1.2-0.3,2.3-0.8,3.3-1.4l2.4,2.4l4-4l-2.4-2.4c0.6-1,1.2-2.2,1.4-3.3H30v-5.7h-3.3c-0.1-0.6-0.4-1.2-0.6-1.9l1.5-1.2h4.7
		c2,0,3.6-1.6,3.6-3.6V3.6C36,1.6,34.3,0,32.4,0z M25.5,22.5l0.1,0.6h3.1v2.8h-3.1l-0.1,0.6c-0.3,1.4-0.9,2.7-1.7,3.9l-0.4,0.5
		l2.3,2.3l-1.9,1.9l-2.3-2.3L21,33.2c-1.2,0.8-2.5,1.4-3.9,1.7L16.5,35v3.2h-2.8v-3.1L13.1,35c-1.4-0.2-2.8-0.8-4-1.6l-0.5-0.3
		l-2.1,2.1l-1.9-1.9l2-2l-0.4-0.5c-0.9-1.2-1.5-2.7-1.9-4.1l-0.1-0.6H1.5v-2.8h2.6l0.1-0.6c0.3-1.6,0.9-3,1.7-4.3l0.4-0.5l-1.8-1.8
		l1.9-1.9l1.8,1.8l0.5-0.4c1.3-0.9,2.7-1.5,4.3-1.7l0.6-0.1v-2.6h2.1v4c0,2,1.6,3.6,3.6,3.6h1.4l0.1,5.5L25,21
		C25.2,21.4,25.3,21.9,25.5,22.5z M34.6,15c0,1.2-0.9,2.2-2.2,2.2h-5.2l-4.9,4l-0.1-4h-2.9c-1.2,0-2.2-0.9-2.2-2.2V3.6
		c0-1.2,0.9-2.2,2.2-2.2h13c1.2,0,2.2,0.9,2.2,2.2V15z"/>
	<path fill="#0D0F0F" d="M25.8,3.4c-1.2,0-2.2,0.3-2.9,0.9c-0.7,0.6-1.2,1.6-1.3,2.7v0.1v0.1c0.1,0.4,0.4,1.2,1.1,1.2
		c0.7,0,1-0.6,1.1-1c0.1-0.7,0.4-1.3,0.7-1.6c0.4-0.4,0.8-0.5,1.3-0.5c0.6,0,1,0.1,1.4,0.6c0.4,0.4,0.6,0.8,0.6,1.2
		c0,0.2-0.1,0.5-0.1,0.7c-0.1,0.1-0.3,0.4-0.9,0.9c-0.5,0.4-0.9,0.8-1.1,1.1c-0.3,0.4-0.5,0.7-0.6,1c-0.1,0.4-0.3,1-0.3,1.6
		c0,0.1,0,0.2,0,0.4c0,0.4,0.3,0.9,1.1,0.9c0.6,0,0.9-0.5,1-0.8v-0.1c0-0.6,0.1-1,0.1-1.2c0.1-0.2,0.1-0.4,0.3-0.6
		c0.1-0.1,0.3-0.4,0.9-0.9c0.7-0.6,1.2-1.2,1.5-1.7c0.3-0.5,0.4-1,0.4-1.6c0-1-0.4-1.9-1.2-2.5C28.1,3.7,27.1,3.4,25.8,3.4z"/>
	<circle fill="#0D0F0F" cx="25.9" cy="15.3" r="1.2"/>
</g>
</svg>
