<?xml version="1.0" encoding="utf-8"?>
<!-- Generator: Adobe Illustrator 18.1.1, SVG Export Plug-In . SVG Version: 6.00 Build 0)  -->
<svg version="1.1" id="Слой_1" xmlns="http://www.w3.org/2000/svg" xmlns:xlink="http://www.w3.org/1999/xlink" x="0px" y="0px"
	 viewBox="0 0 42.4 43.1" enable-background="new 0 0 42.4 43.1" xml:space="preserve">
<g>
	<path fill="#0D0F0F" d="M42.3,14.5c-0.7-5.5-5.3-7.4-8.5-7.7c-1.8-3.7-5.8-4.3-8.5-4c-0.9-1.3-2.9-2.9-7.1-2.8
		c-5.1,0.1-8.3,4.5-9.5,6.6C7.1,6.7,4.2,7.3,2.2,9.4C0.7,10.9,0,12.7,0,15.1c0.1,6.3,4.5,8.9,6.8,9.3l0.7-3.5c-0.1,0-3.9-0.9-4-5.8
		c0-1.4,0.4-2.4,1.1-3.2c1.7-1.7,5-1.8,5.1-1.8h1.2l0.5-1c0-0.1,2.7-5.4,6.8-5.5c3.4-0.1,4.1,1.3,4.2,1.6l0.2,1.8l2-0.5
		c0.5-0.1,5-1.1,6.1,2.6l0.4,1.3h1.4c0.6,0,5.5,0.1,6.1,4.6c0.6,4.7-3.5,6.1-4,6.3l1,3.5C38.4,23.9,43.1,20.8,42.3,14.5z"/>
	<path fill="#0D0F0F" d="M33.1,13.5H9.9c-0.4,0-0.7,0.3-0.7,0.7V19c0,0.4,0.3,0.7,0.7,0.7h23.3c0.4,0,0.7-0.3,0.7-0.7v-4.8
		C33.8,13.8,33.5,13.5,33.1,13.5z M12.1,15.4c0,0.3-0.3,0.6-0.6,0.6c-0.3,0-0.6-0.3-0.6-0.6v-0.1c0-0.3,0.3-0.6,0.6-0.6
		C11.8,14.8,12.1,15.1,12.1,15.4L12.1,15.4z M29.2,18.2h-4c-0.3,0-0.6-0.3-0.6-0.6c0-0.3,0.3-0.6,0.6-0.6h4c0.3,0,0.6,0.3,0.6,0.6
		C29.8,17.9,29.6,18.2,29.2,18.2z"/>
	<path fill="#0D0F0F" d="M33.1,20.8H9.9c-0.4,0-0.7,0.3-0.7,0.7v4.8c0,0.4,0.3,0.7,0.7,0.7h23.3c0.4,0,0.7-0.3,0.7-0.7v-4.8
		C33.8,21.1,33.5,20.8,33.1,20.8z M12.1,22.8c0,0.3-0.3,0.6-0.6,0.6c-0.3,0-0.6-0.3-0.6-0.6v-0.1c0-0.3,0.3-0.6,0.6-0.6
		C11.8,22.1,12.1,22.4,12.1,22.8L12.1,22.8z M29.2,25.5h-4c-0.3,0-0.6-0.3-0.6-0.6c0-0.3,0.3-0.6,0.6-0.6h4c0.3,0,0.6,0.3,0.6,0.6
		C29.8,25.2,29.6,25.5,29.2,25.5z"/>
	<path fill="#0D0F0F" d="M33.1,28.1H9.9c-0.4,0-0.7,0.3-0.7,0.7v4.8c0,0.4,0.3,0.7,0.7,0.7h9.8v4.2h-2.2v1h-8v2.6h8v1h2.2H23h2.2v-1
		h8v-2.6h-8v-1H23v-4.2H33c0.4,0,0.7-0.3,0.7-0.7v-4.8C33.8,28.4,33.5,28.1,33.1,28.1z M12.1,30c0,0.3-0.3,0.6-0.6,0.6
		c-0.3,0-0.6-0.3-0.6-0.6V30c0-0.3,0.3-0.6,0.6-0.6C11.8,29.4,12.1,29.7,12.1,30L12.1,30z M29.2,32.8h-4c-0.3,0-0.6-0.3-0.6-0.6
		c0-0.3,0.3-0.6,0.6-0.6h4c0.3,0,0.6,0.3,0.6,0.6C29.8,32.5,29.6,32.8,29.2,32.8z"/>
</g>
</svg>
