<?xml version="1.0" encoding="utf-8"?>
<!-- Generator: Adobe Illustrator 18.1.1, SVG Export Plug-In . SVG Version: 6.00 Build 0)  -->
<svg version="1.1" id="Слой_1" xmlns="http://www.w3.org/2000/svg" xmlns:xlink="http://www.w3.org/1999/xlink" x="0px" y="0px"
	 viewBox="0 0 35.9 39.6" enable-background="new 0 0 35.9 39.6" xml:space="preserve">
<g>
	<path fill="#0D0F0F" d="M30.3,6.4C26.2,1.9,21.4,0.9,18,0.9c-0.8,0-1.6,0.1-2.4,0.1C15,0.7,13.3,0,11.2,0C9,0,6.8,0.8,4.9,2.4
		c-5,4.2-2.4,9.8-1.7,11.1c-0.3,1.7-1.4,10.5,5.1,15c4.2,3,8.1,3.6,10.7,3.6c1.1,0,1.8-0.1,2.2-0.2c0.6,0.1,2.4,0.6,4.5,0.6l0,0
		c2.7,0,4.8-0.8,6-2.3c3.1-3.5,2.4-8.7,2.2-9.6C34,19.5,35,11.6,30.3,6.4z M32.4,20.8c0,0.1,1,5.2-1.9,8.5c-1,1.2-2.7,1.8-5,1.8
		s-4.2-0.6-4.3-0.6L21,30.4l-0.2,0.1c0,0-0.8,0.2-2,0.2c-2.3,0-5.8-0.6-9.8-3.3C2.7,23,4.5,13.6,4.5,13.5l0.1-0.3L4.5,13
		C4.3,12.8,1,7.4,5.8,3.6c1.7-1.4,3.5-2.1,5.4-2.1c2.2,0,3.8,1,3.8,1l0.2,0.1l0.4-0.1c0.8-0.1,1.7-0.2,2.4-0.2c3,0,7.5,0.9,11.2,5
		c4.5,5,3.2,13.1,3.2,13.2v0.1V20.8z"/>
	<path fill="#0D0F0F" d="M18.8,15c-1.5-0.2-5.3-0.6-5.5-3.5c-0.1-3.1,3.6-3.5,5-3.3c1.4,0.1,4.2,1.4,4.5,3c0.3,1.6,2.2,1.1,2.2-0.4
		s-1.2-3.7-7.1-3.8c-5.9-0.1-7.3,2.7-7.3,4.5c0,0-0.5,4.2,6.9,5.6c0,0,5.9,0.6,6,4c0.1,3.3-4,3.7-5.5,3.5s-4.6-1.5-4.9-3.2
		c-0.3-1.7-2.4-1.2-2.4,0.4s1.2,4,7.8,4.1s8.1-3.3,8-4.8C26.3,15.8,20.3,15.3,18.8,15z"/>
</g>
</svg>
