<?xml version="1.0" encoding="utf-8"?>
<!-- Generator: Adobe Illustrator 18.1.1, SVG Export Plug-In . SVG Version: 6.00 Build 0)  -->
<svg version="1.1" id="Слой_1" xmlns="http://www.w3.org/2000/svg" xmlns:xlink="http://www.w3.org/1999/xlink" x="0px" y="0px"
	 viewBox="0 0 42 37.3" enable-background="new 0 0 42 37.3" xml:space="preserve">
<g>
	<path fill="#0D0F0F" d="M0,0v37.3h42V0L0,0L0,0z M40.6,5.4H27.4v-4h13.2V5.4z M26,1.4v4H1.4v-4H26z M1.4,35.8v-29h39.2v29H1.4z"/>
	<rect x="29.8" y="2.8" fill="#0D0F0F" width="1.2" height="1.2"/>
	<rect x="33.3" y="2.8" fill="#0D0F0F" width="1.2" height="1.2"/>
	<rect x="36.9" y="2.8" fill="#0D0F0F" width="1.2" height="1.2"/>
	<path fill="#0D0F0F" d="M33.2,12.7c0.1-0.8-0.3-1.5-1-2.3c-0.9-0.9-1.8-1.2-2.4-1.2c-0.9,0-1.6,0.5-1.7,0.5L11.4,26.1l-3.2,7.3
		l7.8-3l16.3-16.2C32.5,14.3,33.1,13.8,33.2,12.7z M13.1,26.6l13.3-13.1l2.5,2.3L15.7,28.9L13.1,26.6z M12.3,27.9l2,1.9L10.9,31
		L12.3,27.9z M31.4,13.3l-1.5,1.5l-2.5-2.3l1.6-1.5c0.1-0.1,0.4-0.2,0.8-0.2s0.9,0.2,1.4,0.7c0.3,0.3,0.6,0.7,0.6,1.2
		C31.8,13,31.5,13.3,31.4,13.3z"/>
	<polygon fill="#0D0F0F" points="16.1,19.5 15.8,19.2 17.4,17.4 16.3,16.4 14.8,18.1 13.2,16.6 14.8,14.8 13.7,13.8 12.2,15.6 
		10.5,14 13.5,11.2 19.2,16.8 20.2,15.8 13.5,9.2 8.4,13.9 15.1,20.5 	"/>
	<polygon fill="#0D0F0F" points="25.7,23.3 31.3,28.8 28.4,31.5 27,30.2 28.4,28.7 27.4,27.7 26,29.2 24.4,27.6 25.8,26.1 
		24.8,25.1 23.4,26.6 22.7,26 21.7,27 28.3,33.6 33.4,28.8 26.7,22.2 	"/>
</g>
</svg>
