<?xml version="1.0" encoding="utf-8"?>
<!-- Generator: Adobe Illustrator 18.1.1, SVG Export Plug-In . SVG Version: 6.00 Build 0)  -->
<svg version="1.1" id="Слой_1" xmlns="http://www.w3.org/2000/svg" xmlns:xlink="http://www.w3.org/1999/xlink" x="0px" y="0px"
	 viewBox="0 0 43.5 43.5" enable-background="new 0 0 43.5 43.5" xml:space="preserve">
<g>
	<path fill="#0D0F0F" d="M21.7,0.4C10,0.4,0.4,10,0.4,21.7S10,43.1,21.7,43.1s21.3-9.6,21.3-21.3S33.5,0.4,21.7,0.4z M21.7,41.6
		c-10.9,0-19.9-8.9-19.9-19.9S10.8,1.9,21.7,1.9s19.9,8.9,19.9,19.9S32.7,41.6,21.7,41.6z"/>
	<circle fill="#0D0F0F" cx="21.7" cy="21.7" r="6.9"/>
	<path fill="#0D0F0F" d="M36.5,21.2c-4.8-5.6-9.9-8.4-15.2-8.2C12.9,13.3,7.1,21,6.9,21.3l-0.3,0.4L7,22.2c4.6,5.5,9.6,8.2,14.7,8.2
		c0.1,0,0.3,0,0.5,0c8.4-0.3,14.2-7.9,14.4-8.3l0.3-0.4L36.5,21.2z M22.1,28.9c-4.7,0.1-9.3-2.3-13.6-7.3c1.4-1.6,6.3-7,13-7.2
		c4.7-0.1,9.3,2.3,13.6,7.3C33.7,23.3,28.7,28.7,22.1,28.9z"/>
</g>
</svg>
