<?xml version="1.0" encoding="utf-8"?>
<!-- Generator: Adobe Illustrator 18.1.1, SVG Export Plug-In . SVG Version: 6.00 Build 0)  -->
<svg version="1.1" id="Слой_1" xmlns="http://www.w3.org/2000/svg" xmlns:xlink="http://www.w3.org/1999/xlink" x="0px" y="0px"
	 viewBox="0 0 35.9 39.6" enable-background="new 0 0 35.9 39.6" xml:space="preserve">
<g>
	<rect x="13" y="5.6" transform="matrix(0.7071 0.7071 -0.7071 0.7071 10.3035 -8.5778)" fill="#0D0F0F" width="5.1" height="5.1"/>
	
		<rect x="15.7" y="11.5" transform="matrix(-0.7071 -0.7071 0.7071 -0.7071 21.2317 36.9561)" fill="#0D0F0F" width="5.1" height="5.1"/>
	
		<rect x="18.6" y="17.9" transform="matrix(-0.7071 -0.7071 0.7071 -0.7071 21.7487 49.8366)" fill="#0D0F0F" width="5.1" height="5.1"/>
	
		<rect x="27.2" y="20.9" transform="matrix(0.7071 0.7071 -0.7071 0.7071 24.5189 -13.8381)" fill="#0D0F0F" width="3.6" height="3.6"/>
	
		<rect x="24.8" y="15.5" transform="matrix(-0.7071 -0.7071 0.7071 -0.7071 33.1923 48.2879)" fill="#0D0F0F" width="3.6" height="3.6"/>
	
		<rect x="22.3" y="9.9" transform="matrix(-0.7071 -0.7071 0.7071 -0.7071 32.7746 37.0058)" fill="#0D0F0F" width="3.6" height="3.6"/>
	
		<rect x="19.6" y="4.5" transform="matrix(0.7071 0.7071 -0.7071 0.7071 10.7511 -13.3098)" fill="#0D0F0F" width="3.6" height="3.6"/>
	
		<rect x="25.5" y="3.8" transform="matrix(0.7071 -0.7071 0.7071 0.7071 4.2479 20.4681)" fill="#0D0F0F" width="2.7" height="2.7"/>
	<rect x="27.9" y="9" transform="matrix(0.7071 -0.7071 0.7071 0.7071 1.2623 23.7294)" fill="#0D0F0F" width="2.7" height="2.7"/>
	
		<rect x="30.6" y="14.4" transform="matrix(-0.7071 0.7071 -0.7071 -0.7071 65.6355 4.242)" fill="#0D0F0F" width="2.7" height="2.7"/>
	<path fill="#0D0F0F" d="M21.2,26l-5.6-5.6l1.7-1.7l-4.6-4.6l1.6-1.6L9.9,8.2l5.6-5.6l2.6,2.6l3.4-3.4l2.4,2.4l1.9-1.9
		C23.5,0.9,20.7,0,17.7,0C9.1,0,2.1,6.8,2.1,15.1s7,15.1,15.6,15.1c4,0,7.7-1.5,10.4-4l-3.6-3.6L21.2,26z"/>
</g>
</svg>
