<?xml version="1.0" encoding="utf-8"?>
<!-- Generator: Adobe Illustrator 17.1.0, SVG Export Plug-In . SVG Version: 6.00 Build 0)  -->
<!DOCTYPE svg PUBLIC "-//W3C//DTD SVG 1.1//EN" "http://www.w3.org/Graphics/SVG/1.1/DTD/svg11.dtd">
<svg version="1.1" id="Layer_1" xmlns="http://www.w3.org/2000/svg" xmlns:xlink="http://www.w3.org/1999/xlink" x="0px" y="0px"
	 viewBox="0 0 850 711" enable-background="new 0 0 850 711" xml:space="preserve">
<path d="M88.7,71.7l-7.2-7.2c4.2-5.2,6.7-11.8,6.7-19c0-16.7-13.6-30.3-30.3-30.3S27.7,28.8,27.7,45.5s13.6,30.3,30.3,30.3
	c7.2,0,13.9-2.6,19.1-6.8l7.2,7.2L88.7,71.7z M57.9,73.7c-15.6,0-28.3-12.7-28.3-28.3c0-15.6,12.7-28.3,28.3-28.3
	c15.6,0,28.3,12.7,28.3,28.3c0,6.6-2.3,12.7-6.1,17.6l-6.3-6.3c2.3-3.2,3.6-7,3.6-11.2c0-10.7-8.7-19.4-19.4-19.4
	c-10.7,0-19.4,8.7-19.4,19.4s8.7,19.4,19.4,19.4c4.2,0,8.2-1.4,11.4-3.7l6.3,6.3C70.8,71.4,64.6,73.7,57.9,73.7z M57.9,62.9
	c-9.6,0-17.4-7.8-17.4-17.4s7.8-17.4,17.4-17.4s17.4,7.8,17.4,17.4S67.5,62.9,57.9,62.9z"/>
<path d="M214.8,42.7h-14.3l3.5-2.6V29.4l-5.7-3h-18.7l-5.7,3v10.7l3.3,2.6h-13.5l-5.7,3v10.7l5.7,4.6h12.2l-2,1.1v10.7l5.7,4.6h18.3
	l6-4.6V62.1l-2-1.1h12.5l6-4.6V45.7L214.8,42.7z M163.7,58.1l-3.7-2.7V47l3.7-1.7V58.1z M181.6,59V44.7h14.7V59H181.6z M198.3,28.9
	l3.7,1.7V39l-3.7,2.7V28.9z M181.6,28.3h14.7v14.3h-14.7V28.3z M175.9,30.6l3.7-1.7v12.8l-3.7-2.7V30.6z M165.7,44.7h13.9V59h-13.9
	V44.7z M179.6,74.5l-3.7-2.7v-8.4l3.7-1.7V74.5z M196.3,75.4h-14.7V61.1h14.7V75.4z M202,71.8l-3.7,2.7V61.7l3.7,1.7V71.8z
	 M212.8,59h-14.5V44.7h14.5V59z M218.5,55.4l-3.7,2.7V45.3l3.7,1.7V55.4z"/>
<polygon points="265.6,51.9 259.3,55.5 253,59.2 253,51.9 253,44.6 259.3,48.2 "/>
<g>
	<path d="M313.7,30c-2.2,0-4,1.8-4,4s1.8,4,4,4s4-1.8,4-4S315.9,30,313.7,30z M313.7,36c-1.1,0-2-0.9-2-2s0.9-2,2-2s2,0.9,2,2
		S314.8,36,313.7,36z"/>
	<path d="M313.7,26.7c-4,0-7.3,3.3-7.3,7.3s3.3,7.3,7.3,7.3c4,0,7.3-3.3,7.3-7.3S317.7,26.7,313.7,26.7z M313.7,39.3
		c-2.9,0-5.3-2.4-5.3-5.3s2.4-5.3,5.3-5.3c2.9,0,5.3,2.4,5.3,5.3S316.6,39.3,313.7,39.3z"/>
	<path d="M332.8,34c0-10.6-8.6-19.2-19.2-19.2c-10.6,0-19.2,8.6-19.2,19.2c0,8.2,5.2,15.2,12.5,17.9v9.3l5.3,5.9h3.2l4.9-5.9v-9.3
		C327.7,49.2,332.8,42.2,332.8,34z M314.6,65.1h-1.4l-1.8-1.9h4.8L314.6,65.1z M318.4,59.3H309v-2.3h9.4V59.3z M318.4,55.1H309v-2.5
		c1.5,0.4,3.1,0.6,4.7,0.6c1.6,0,3.2-0.2,4.8-0.6V55.1z M313.7,51.2c-9.5,0-17.2-7.7-17.2-17.2s7.7-17.2,17.2-17.2
		s17.2,7.7,17.2,17.2S323.1,51.2,313.7,51.2z"/>
	<path d="M325.6,31.5c-0.9-0.9-1.6-2.7-1.6-3.9c0-2-1.7-3.7-3.7-3.7c-1.2,0-3-0.8-3.9-1.6c-1.4-1.4-3.8-1.4-5.2,0
		c-0.9,0.9-2.7,1.6-3.9,1.6c-2,0-3.7,1.7-3.7,3.7c0,1.2-0.8,3-1.6,3.9c-1.4,1.4-1.4,3.8,0,5.2c0.9,0.9,1.6,2.7,1.6,3.9
		c0,2,1.7,3.7,3.7,3.7c1.2,0,3,0.8,3.9,1.6c0.7,0.7,1.6,1.1,2.6,1.1s1.9-0.4,2.6-1.1c0.9-0.9,2.7-1.6,3.9-1.6c2,0,3.7-1.7,3.7-3.7
		c0-1.2,0.8-3,1.6-3.9C327.1,35.3,327.1,33,325.6,31.5z M324.2,35.3c-1.2,1.2-2.2,3.6-2.2,5.3c0,0.9-0.8,1.7-1.7,1.7
		c-1.7,0-4.1,1-5.3,2.2c-0.6,0.6-1.8,0.6-2.4,0c-1.2-1.2-3.6-2.2-5.3-2.2c-0.9,0-1.7-0.8-1.7-1.7c0-1.7-1-4.1-2.2-5.3
		c-0.7-0.7-0.7-1.7,0-2.4c1.2-1.2,2.2-3.6,2.2-5.3c0-0.9,0.8-1.7,1.7-1.7c1.7,0,4.1-1,5.3-2.2c0.3-0.3,0.7-0.5,1.2-0.5
		c0.5,0,0.9,0.2,1.2,0.5c1.2,1.2,3.6,2.2,5.3,2.2c0.9,0,1.7,0.8,1.7,1.7c0,1.7,1,4.1,2.2,5.3C324.9,33.6,324.9,34.7,324.2,35.3z"/>
</g>
<g>
	<path d="M403.6,61.4v-8.9c0-1.7,1.3-3,3-3h13.6v-7.6c0-1.1-0.9-2-2-2h-40.8c-1.1,0-2,0.9-2,2v29.6c0,1.1,0.9,2,2,2h40.8
		c1.1,0,2-0.9,2-2v-7.1h-13.6C405,64.4,403.6,63,403.6,61.4z"/>
	<path d="M415.2,38.5l-1.2-4.8c-0.3-1.1-1.4-1.7-2.4-1.4l-24.8,6.3L415.2,38.5z"/>
	<path d="M402.7,28.6c-0.5-0.8-1.5-1.1-2.3-0.7l-19.2,10.6l23.6-6.2L402.7,28.6z"/>
	<path d="M420.4,50.5h-13.8c-1.1,0-2,0.9-2,2v8.9c0,1.1,0.9,2,2,2h13.8c1.1,0,2-0.9,2-2v-8.9C422.4,51.4,421.5,50.5,420.4,50.5z
		 M411,59.3c-1.4,0-2.5-1.1-2.5-2.5c0-1.4,1.1-2.5,2.5-2.5s2.5,1.1,2.5,2.5C413.5,58.1,412.4,59.3,411,59.3z"/>
</g>
<g>
	<path d="M490.8,20c-16.7,0-30.3,13.6-30.3,30.3s13.6,30.3,30.3,30.3S521,66.9,521,50.3S507.4,20,490.8,20z M490.8,78.5
		c-15.6,0-28.3-12.7-28.3-28.3S475.2,22,490.8,22S519,34.7,519,50.3S506.3,78.5,490.8,78.5z"/>
	<path d="M506.6,38.1h-31.1c-1.4,0-2.5,1.1-2.5,2.5v19.9c0,1.4,1.1,2.5,2.5,2.5h31.1c1.4,0,2.5-1.1,2.5-2.5V40.6
		C509.1,39.2,508,38.1,506.6,38.1z M506.6,39.1c0.1,0,0.1,0,0.2,0L491,51.3l-15.8-12.2c0.1,0,0.2,0,0.3,0H506.6z M508.1,60.5
		c0,0.8-0.7,1.5-1.5,1.5h-31.1c-0.8,0-1.5-0.7-1.5-1.5V40.6c0-0.3,0.1-0.7,0.3-0.9l12,9.2l-7.3,6.6l0.7,0.7l7.4-6.8l3.7,2.9l0.2,0.2
		l3.9-3l7.4,6.8l0.7-0.7l-7.3-6.6l12.1-9.3c0.2,0.3,0.3,0.6,0.3,0.9V60.5z"/>
</g>
<g>
	<path d="M614.5,64.2l-3-25.9c-0.2-1.4-1.4-2.4-2.8-2.2l-38.6,4.5c-1.4,0.2-2.4,1.4-2.2,2.8l3,25.9c0.1,1.3,1.2,2.2,2.5,2.2
		c0.1,0,0.2,0,0.3,0l38.6-4.5C613.7,66.9,614.7,65.6,614.5,64.2z M612.2,66l-38.6,4.5c-0.8,0.1-1.6-0.5-1.7-1.3l-3-25.9
		c-0.1-0.8,0.5-1.6,1.3-1.7l38.6-4.5c0.1,0,0.1,0,0.2,0c0.8,0,1.4,0.6,1.5,1.3l3,25.9C613.6,65.2,613,65.9,612.2,66z"/>
	<path d="M578.7,53.9c0.2,0,0.4,0,0.6,0c1.3-0.1,2.4-0.8,3.2-1.8s1.1-2.2,1-3.5c-0.3-2.6-2.6-4.5-5.3-4.2c-1.3,0.1-2.4,0.8-3.2,1.8
		c-0.8,1-1.1,2.2-1,3.5C574.3,52.1,576.3,53.9,578.7,53.9z M575.8,46.8c0.6-0.8,1.5-1.3,2.5-1.4c0.1,0,0.3,0,0.4,0
		c1.9,0,3.5,1.4,3.7,3.3c0.1,1-0.2,2-0.8,2.8c-0.6,0.8-1.5,1.3-2.5,1.4c-2.1,0.2-3.9-1.3-4.2-3.3C574.9,48.6,575.2,47.6,575.8,46.8z
		"/>
	<path d="M574.9,57.3l1.1,9.4l9.4-1.1l-1.1-9.4L574.9,57.3z M576.9,65.6l-0.9-7.4l7.4-0.9l0.9,7.4L576.9,65.6z"/>
	<rect x="590.2" y="44.6" transform="matrix(0.9933 -0.116 0.116 0.9933 -1.1961 69.6855)" width="16.1" height="1"/>
	<rect x="590.9" y="50" transform="matrix(0.9933 -0.116 0.116 0.9933 -1.811 69.7939)" width="16.1" height="1"/>
	<rect x="591.5" y="55.3" transform="matrix(0.9933 -0.1159 0.1159 0.9933 -2.4264 69.884)" width="16.1" height="1"/>
	<rect x="599.6" y="53.1" transform="matrix(-0.1153 -0.9933 0.9933 -0.1153 608.5657 664.313)" width="1" height="16.1"/>
</g>
<polygon points="834.1,21.4 834.1,19.4 629.8,19.4 629.8,21.4 731,21.4 731,180 702.6,180 702.6,182 761.3,182 761.3,180 733,180 
	733,21.4 "/>
<g>
	<path d="M58.5,119.8c-12.8,0-23.3,10.4-23.3,23.3s10.4,23.3,23.3,23.3s23.3-10.4,23.3-23.3S71.3,119.8,58.5,119.8z M58.5,164.3
		c-11.7,0-21.3-9.5-21.3-21.3s9.5-21.3,21.3-21.3s21.3,9.5,21.3,21.3S70.2,164.3,58.5,164.3z"/>
	<path d="M40.9,143h-2c0,1.5,0.2,3.1,0.5,4.6l1.9-0.5C41,145.8,40.9,144.4,40.9,143z"/>
	<path d="M42.4,150.1l-1.8,0.8c2.1,4.7,6,8.5,10.8,10.4l0.7-1.9C47.8,157.7,44.2,154.3,42.4,150.1z"/>
	<path d="M58.4,124.2c-3.4,0-6.1,0.9-8.2,2.8c-2.1,1.8-3.3,4.5-3.8,7.9l0,0.1l0,0.1c0.2,1.3,1,3.5,3.1,3.5c2,0,3-1.9,3.2-2.9
		c0.3-2.1,1-3.7,2-4.6c1-0.9,2.2-1.4,3.7-1.4c1.6,0,2.9,0.5,3.9,1.6c1.1,1,1.6,2.2,1.6,3.5c0,0.7-0.2,1.4-0.5,2
		c-0.3,0.5-0.9,1.3-2.6,2.8c-1.5,1.3-2.5,2.3-3.1,3c-0.8,1-1.4,2-1.8,3c-0.5,1.3-0.8,2.8-0.8,4.6c0,0.3,0,0.7,0,1.3
		c0,1,0.9,2.5,3.1,2.5c1.8,0,2.6-1.5,2.8-2.3l0-0.2c0-2,0.2-2.9,0.3-3.4c0.2-0.6,0.4-1.2,0.8-1.6c0.3-0.4,0.9-1.1,2.5-2.5
		c2.1-1.9,3.5-3.5,4.3-4.8c0.8-1.4,1.2-2.9,1.2-4.6c0-2.8-1.1-5.3-3.3-7.3C64.8,125.2,61.9,124.2,58.4,124.2z M67.4,138
		c-0.6,1.1-1.9,2.6-3.9,4.3c-1.4,1.3-2.3,2.2-2.8,2.8c-0.5,0.7-0.9,1.4-1.1,2.3c-0.2,0.8-0.3,2-0.4,3.7c-0.1,0.2-0.3,0.6-0.9,0.6
		c-1,0-1.1-0.4-1.1-0.5c0-0.5,0-0.9,0-1.2c0-1.5,0.2-2.8,0.6-3.9c0.3-0.8,0.8-1.6,1.5-2.4c0.5-0.6,1.5-1.6,2.9-2.8
		c1.5-1.4,2.5-2.4,3-3.3c0.5-0.9,0.8-1.9,0.8-3c0-1.9-0.7-3.6-2.2-5c-1.4-1.4-3.2-2.1-5.3-2.1c-2,0-3.7,0.6-5.1,1.9
		c-1.3,1.3-2.2,3.2-2.6,5.7c0,0-0.3,1.3-1.2,1.3c-0.7,0-1-1.2-1.1-1.6c0.4-2.8,1.4-5,3.1-6.5c1.7-1.5,4-2.3,6.9-2.3
		c3,0,5.5,0.8,7.2,2.4c1.8,1.6,2.6,3.5,2.6,5.8C68.3,135.7,68,136.9,67.4,138z"/>
	<path d="M58.5,155c-1.9,0-3.4,1.5-3.4,3.4s1.5,3.4,3.4,3.4s3.4-1.5,3.4-3.4S60.4,155,58.5,155z M58.5,159.8c-0.8,0-1.4-0.6-1.4-1.4
		s0.6-1.4,1.4-1.4s1.4,0.6,1.4,1.4S59.3,159.8,58.5,159.8z"/>
</g>
<polygon points="814.4,347.5 814.4,345.5 768.3,345.5 768.3,292.4 814.3,292.4 814.3,290.4 768.3,290.4 768.3,236.4 814.3,236.4 
	814.3,234.4 768.3,234.4 768.3,206.7 766.3,206.7 766.3,234.4 720.4,234.4 720.4,236.4 766.3,236.4 766.3,318.4 720.4,318.4 
	720.4,320.4 766.3,320.4 766.3,401.4 720.4,401.4 720.4,403.4 766.3,403.4 766.3,503.7 768.3,503.7 768.3,403.4 814.3,403.4 
	814.3,401.4 768.3,401.4 768.3,347.5 "/>
<path d="M138.4,115.3c-4.3-1.6-9.5,1.8-11.6,7.5c-0.2,0.5-0.3,1.3-0.3,2.4c-0.9-1.6-2-2.9-3.3-3.7c-1.7-1.2-3.4-1.4-4.9-0.7
	c-1,0.5-1.7,1.3-2.2,2.5c-0.5,1.4-0.5,3.2-0.1,5c-0.1-0.1-0.3-0.1-0.4-0.2c-5.7-2.1-11.6-0.2-13.2,4.1c-1.6,4.3,1.8,9.5,7.5,11.6
	c0.3,0.1,0.7,0.2,1.1,0.2c-1.6,1.2-2.7,2.6-3.3,4c-0.4,1.2-0.4,2.3,0,3.3c0.7,1.4,2.2,2.3,4.2,2.6c1.2,0.1,2.5,0,3.9-0.4
	c-0.4,0.6-0.7,1.1-0.8,1.5c-2.1,5.7-0.2,11.6,4.1,13.2c4.3,1.6,9.5-1.8,11.6-7.5c0.1-0.4,0.3-1.1,0.3-2c0.7,1,1.6,1.8,2.5,2.4
	c1.7,1.2,3.4,1.4,4.9,0.7c1-0.5,1.7-1.3,2.2-2.5c0.5-1.3,0.5-2.8,0.2-4.5c0.4,0.3,0.8,0.5,1.1,0.6c5.7,2.1,11.6,0.2,13.2-4.1
	c1.6-4.3-1.8-9.5-7.5-11.6c-0.6-0.2-1.8-0.4-3.3-0.3c2.2-1.3,3.9-3,4.6-4.9c0.4-1.2,0.4-2.3,0-3.3c-0.9-2-3.5-2.9-6.5-2.5
	c0,0,0.1-0.1,0.1-0.2C144.6,122.7,142.7,116.8,138.4,115.3z M118.8,130.1c-1-2.2-1.3-4.6-0.7-6.2c0.3-0.7,0.6-1.2,1.1-1.4
	c1-0.5,2.3,0.2,2.9,0.6c1.3,0.9,2.4,2.3,3.2,4c0.5,1.1,1,4.7,0.2,6.7c0,0,0,0.1-0.1,0.2c-0.5,0.2-0.9,0.5-1.4,0.8
	c-0.6-0.2-1.4-0.6-2.5-1.5c-0.1-0.1-0.2-0.2-0.3-0.2c-0.7-1-1.6-1.9-2.5-2.7C118.8,130.2,118.8,130.1,118.8,130.1z M134,143
	c-1.1,3-4.4,4.6-7.4,3.5c-3-1.1-4.6-4.4-3.5-7.4c1.1-3,4.4-4.6,7.4-3.5C133.6,136.6,135.1,140,134,143z M104.4,132.8
	c1.2-3.3,5.9-4.6,10.6-2.9c0.6,0.2,1.5,0.8,2.4,1.7c0.6,0.8,1.5,1.8,2.5,2.7c0.9,1.2,1.5,2.5,1.6,3.6c-0.1,0.2-0.1,0.3-0.2,0.5
	c-0.1,0.4-0.2,0.8-0.3,1.2c-1.9,2.4-8.8,2.7-10.2,2.2C106,140.1,103.2,136,104.4,132.8z M129,159.8c-1.7,4.7-5.7,7.5-9,6.3
	c-3.3-1.2-4.6-5.9-2.9-10.6c0.7-1.9,5.9-7.4,9-6.3C129.2,150.3,129.5,158.3,129,159.8z M138.8,158.4c-0.3,0.7-0.6,1.2-1.1,1.4
	c-1,0.5-2.3-0.2-2.9-0.6c-1.3-0.9-2.4-2.3-3.2-4c-0.5-1.1-1-4.7-0.2-6.7c0-0.1,0.1-0.3,0.2-0.4c0.4-0.2,0.7-0.3,1.1-0.5
	c0.6,0.1,1.5,0.5,2.6,1.5c0.3,0.2,0.5,0.4,0.8,0.7c0.6,0.9,1.3,1.8,2.1,2.5C139.1,154.6,139.4,156.9,138.8,158.4z M153.4,150.5
	c-1.2,3.3-5.9,4.6-10.6,2.9c-0.7-0.3-1.9-1.1-3-2.3c-0.4-0.7-1.2-1.7-2.2-2.6c-1-1.5-1.6-3-1.1-4.2c1.1-3,9.1-3.4,10.6-2.9
	C151.7,143.2,154.5,147.3,153.4,150.5z M147.1,131.9c0.2,0.5,0.2,1.1,0,1.8c-0.6,1.6-2.3,3.2-4.5,4.3c-0.7,0.3-2.5,0.6-4.2,0.6
	c-1,0-1.9-0.2-2.5-0.4c-0.2-0.6-0.5-1.1-0.8-1.6c0,0,0-0.1,0-0.1c0.1-0.4,0.4-0.8,0.7-1.3c2-1,3.8-2.7,5.1-4.3
	C143.9,130,146.5,130.6,147.1,131.9z M139.7,129.3c-0.3,0.1-0.6,0.3-1,0.4c-1,0.5-2.9,2.2-4.3,4c-0.7,0.3-1.4,0.5-2,0.5
	c-0.4-0.2-0.7-0.4-1.2-0.5c-0.1-0.1-0.3-0.1-0.4-0.1c-2.3-2.1-2.5-8.7-2-10.1c1.7-4.7,5.7-7.5,9-6.3c3.3,1.2,4.6,5.9,2.9,10.6
	C140.5,128.1,140.1,128.7,139.7,129.3z"/>
<g>
	<path d="M220.4,132.5c0-8.5-6.9-15.4-15.4-15.4s-15.4,6.9-15.4,15.4c0,4.8,2.2,9,5.6,11.9c0.4,8.7,2.4,9.2,3.1,9.3
		c0.1,0,0.3,0,0.4,0c1.8,0,3-2.5,3.4-3.4l-1.8-0.9c-1,2.1-1.6,2.3-1.6,2.3c-0.1,0-1.1-0.8-1.4-6c2.3,1.3,4.9,2.1,7.7,2.1
		C213.5,147.9,220.4,141,220.4,132.5z M191.6,132.5c0-7.4,6-13.4,13.4-13.4s13.4,6,13.4,13.4s-6,13.4-13.4,13.4
		c-2.9,0-5.6-0.9-7.8-2.5c-0.1-4.5,1.3-8.3,2.5-10.9c0.5,0.2,1,0.3,1.6,0.3c2.3,0,4.1-1.9,4.1-4.1s-1.9-4.1-4.1-4.1
		s-4.1,1.9-4.1,4.1c0,1,0.3,1.8,0.9,2.5c-1.2,2.4-2.5,6.1-2.8,10.4C193,139.2,191.6,136,191.6,132.5z M199.1,128.6
		c0-1.2,1-2.1,2.1-2.1s2.1,1,2.1,2.1s-1,2.1-2.1,2.1c-0.2,0-0.5,0-0.7-0.1c0.5-0.9,0.9-1.4,0.9-1.4l-1.6-1.2c0,0.1-0.3,0.4-0.6,1
		C199.1,128.9,199.1,128.8,199.1,128.6z"/>
	<polygon points="222.1,140 220.7,141.4 234.1,155.2 234.1,161.5 228.3,161.5 227.7,159.2 225.2,158.4 225.2,155.3 222.3,155.2 
		221.9,152.1 218.2,152.2 214,148 212.5,149.5 217.3,154.2 220.1,154.1 220.5,157.1 223.2,157.2 223.2,159.9 226,160.8 226.7,163.5 
		236.1,163.5 236.1,154.3 	"/>
	<rect x="223.9" y="141.4" transform="matrix(-0.7071 0.7071 -0.7071 -0.7071 490.7654 98.7183)" width="2" height="19.3"/>
</g>
<g>
	<path d="M298.5,114.5c-16.7,0-30.3,13.6-30.3,30.3c0,16.7,13.6,30.3,30.3,30.3s30.3-13.6,30.3-30.3
		C328.8,128.2,315.2,114.5,298.5,114.5z M298.5,173.2c-15.6,0-28.3-12.7-28.3-28.3s12.7-28.3,28.3-28.3s28.3,12.7,28.3,28.3
		S314.1,173.2,298.5,173.2z"/>
	<path d="M295.5,164.8h6.8v-28.5h-6.8V164.8z M296.5,137.3h4.8v26.5h-4.8V137.3z"/>
	<path d="M295.5,132.7h6.8v-7h-6.8V132.7z M296.5,126.7h4.8v5h-4.8V126.7z"/>
</g>
<path d="M408.4,143.9c-0.8-2.8-5.4-4.6-8.1-4.6l-0.6,0c-0.5,0-1,0-1.5,0c-2.3,0-3-0.4-3.2-0.7c-0.1-0.1-0.3-0.7,0.6-2.2
	c3.1-5.3,3.4-9.2,1.1-11.8c-0.8-0.8-1.5-1.2-2.3-1.2c-2.1,0-3.3,2.7-5.1,6.9c-1.8,4.4-8.3,9.5-9.9,10.7c-2.2-0.6-5.6-1.2-7.6-1.2
	c-0.7,0-1.2,0.1-1.6,0.2c-2.4,0.8-4.5,13-4.3,16.5c0.2,4.1,3.9,4.2,7.3,4.3c1,0,2.1,0,3.2,0.2c1.9,0.2,4.7,1,7.7,1.8
	c4.2,1.2,9,2.5,12.4,2.5l0.2,0c4.8-0.1,6.4-3.5,6.7-5.7c1.2-0.5,2-1.4,2.4-2.4c0.5-1.3,0.2-2.6-0.1-3.5c1.2-0.8,1.8-1.8,2-3
	c0.2-1.3-0.4-2.4-0.9-3.2C408.7,146.2,408.7,144.9,408.4,143.9z M368.1,156.4c-0.2-4,2.1-13.3,3.1-14.5c0.1,0,0.4-0.1,0.8-0.1
	c1.7,0,4.6,0.5,6.7,1l-2.3,16.1c-1-0.1-1.9-0.1-2.8-0.1C369.6,158.7,368.2,158.5,368.1,156.4z M405.1,146.6l-1.1,0.7l0.9,0.9
	c0.3,0.3,1.2,1.4,1.1,2.4c-0.1,0.7-0.7,1.3-1.7,1.9l-0.9,0.5l0.5,0.9c0,0,0.8,1.5,0.3,2.7c-0.3,0.7-0.9,1.2-1.8,1.5l-0.7,0.2l0,0.7
	c0,0.4-0.2,4.4-4.8,4.4l-0.2,0c-3.2,0-7.8-1.3-11.9-2.4c-2.4-0.7-4.7-1.3-6.6-1.7l2.4-16.5c1.6-1.2,8.6-6.5,10.7-11.6
	c0.6-1.4,2.3-5.6,3.2-5.6c0,0,0.3,0,0.8,0.6c1.1,1.2,2.1,3.5-1.4,9.4c-1,1.8-1.2,3.2-0.6,4.2c1,1.8,3.9,1.7,6.4,1.6l0.6,0
	c2.2,0,5.7,1.6,6.2,3.2C406.7,145.1,406.2,145.8,405.1,146.6z"/>
<g>
	<path d="M487.2,155l-2.3-3.2l3.6-12.1l-30.4-9l-3.6,12.1l-3.7,1.4c-1.2,0.4-2.2,1.1-2.7,2.6l-6.5,21.9c-0.5,1.5,0.4,3.1,1.9,3.6
		l17.2,5.1l17.2,5.1c1.5,0.5,3.1-0.4,3.6-1.9l6.5-21.9C488.4,157.1,488,156,487.2,155z M486.4,156.2l-3.2,1.2l1.2-3.9
		C485,154.3,486.3,156.1,486.4,156.2z M487,140.5l-5.2,17.4l-5.2,2L457,154l-3.3-4.5l5.2-17.4L487,140.5z M471.6,161.8l-11.4-3.4
		l-2.1-2.9l16.8,5L471.6,161.8z M469.8,162.5l-5.2,2l-3.3-4.5L469.8,162.5z M454,144.4l-1.2,3.9l-2-2.7
		C450.9,145.6,453,144.8,454,144.4z M442.8,169.1l6.5-21.9c0.1-0.4,0.4-0.7,0.7-0.9l10.3,14.2l-17.5,8.9
		C442.7,169.3,442.7,169.2,442.8,169.1z M478.2,181.4l-17.2-5.1l-17.2-5.1c-0.4-0.1-0.7-0.4-0.9-0.7l17.9-9.1l3.3,4.5l5.2-2
		l10.1,17.4C479.1,181.5,478.6,181.5,478.2,181.4z M480.4,180.2c0,0.1-0.1,0.2-0.1,0.3l-9.8-17l16.4-6.3c0.1,0.4,0.2,0.8,0.1,1.1
		L480.4,180.2z"/>
	<rect x="459.9" y="136.7" transform="matrix(0.9587 0.2844 -0.2844 0.9587 58.1346 -125.7737)" width="4.5" height="1.1"/>
	<rect x="459.1" y="139.6" transform="matrix(0.9587 0.2844 -0.2844 0.9587 58.9826 -125.837)" width="7.3" height="1.1"/>
	<rect x="466.7" y="147" transform="matrix(0.9587 0.2844 -0.2844 0.9587 61.373 -127.4671)" width="5.7" height="1.1"/>
	<rect x="458.2" y="150.6" transform="matrix(-0.9587 -0.2844 0.2844 -0.9587 874.7291 429.3716)" width="20.8" height="1.1"/>
	<rect x="457.2" y="153.8" transform="matrix(-0.9587 -0.2844 0.2844 -0.9587 871.9866 435.3105)" width="20.8" height="1.1"/>
</g>
<g>
	<path d="M561.5,125.5c-16.6,0-30.2,13.5-30.2,30.2s13.5,30.2,30.2,30.2s30.2-13.5,30.2-30.2S578.1,125.5,561.5,125.5z M561.5,183.8
		c-15.5,0-28.2-12.6-28.2-28.2s12.6-28.2,28.2-28.2s28.2,12.6,28.2,28.2S577,183.8,561.5,183.8z"/>
	<path d="M561.5,171c-4.4,0-8.4-1.9-11.2-4.9c0.6-0.8,1-1.7,1-2.8c0-2.5-2-4.5-4.5-4.5c-2.5,0-4.5,2-4.5,4.5s2,4.5,4.5,4.5
		c0.7,0,1.3-0.2,1.9-0.4c3.2,3.4,7.7,5.6,12.7,5.6c3.5,0,6.7-1,9.4-2.8c-0.4-0.5-0.8-1.1-1-1.7C567.5,170.1,564.6,171,561.5,171z"/>
	<path d="M546.2,155c0.3-6.7,4.9-12.3,11.1-14.1c0.6,1.7,2.3,2.9,4.2,2.9c2.5,0,4.5-2,4.5-4.5s-2-4.5-4.5-4.5
		c-2.3,0-4.3,1.8-4.5,4.1c-7.2,1.9-12.6,8.4-12.8,16.2c0.4-0.1,0.8-0.1,1.3-0.1C545.7,155,546,155,546.2,155z"/>
	<path d="M578.3,159.7c0.3-1.3,0.5-2.6,0.5-4c0-6.1-3.2-11.5-8.1-14.6c-0.2,0.7-0.5,1.3-0.9,1.8c4.2,2.7,6.9,7.5,6.9,12.8
		c0,1.1-0.1,2.2-0.4,3.2c-0.3,0-0.5-0.1-0.8-0.1c-2.5,0-4.5,2-4.5,4.5s2,4.5,4.5,4.5c2.5,0,4.5-2,4.5-4.5
		C580.2,161.8,579.5,160.5,578.3,159.7z"/>
</g>
<g>
	<path d="M78.6,276.5c-7.6-3-6.8,2.1-13.3,2.1s-5.6-5.1-13.3-2.1S41.4,288,41.4,291.3s2.6,3.1,2.6,3.1h21.4h21.4
		c0,0,2.6,0.2,2.6-3.1S86.3,279.5,78.6,276.5z"/>
	<path d="M69.6,273.1c3.8-2.2,7.7-7.2,7.7-15.8c0-13.1-12-13.1-12-13.1s-12,0-12,13.1c0,10.6,5.9,15.7,10.2,16.8c0.3-1,0.9-2,3-2.3
		C68.3,271.5,69,272.2,69.6,273.1z"/>
	<path d="M51.1,266.3c1.2,0,1.7-1.2,1.6-4.2c-0.1-3-1.6-10.9,2.3-15.1c3.8-4.2,6.8-4.7,10.4-4.7s6.6,0.5,10.4,4.7
		c3.8,4.2,2.3,12.1,2.3,15.1c-0.1,2.6,0.3,3.8,1.2,4.1c-0.9,5.5-10.5,7.6-10.5,7.6c-0.3-0.4-0.3-1.1-1.7-1.1c-1.3,0-2.6,2-0.9,3.7
		c1.7,1.7,2.9-0.9,2.9-0.9s7.7-1.9,10.3-4c1.7-1.4,1.9-3.9,1.9-5.5c2.6-0.7,5.5-2.8,5.9-6.3c0.4-4.2-5.8-5.7-5.8-5.7
		c-1.1-16.4-16-15.8-16-15.8s-14.9-0.6-16,15.8c0,0-6.2,1.5-5.8,5.7C44,264,48.2,266.3,51.1,266.3z"/>
</g>
<g>
	<path d="M161.5,244c-16.6,0-30.1,13.5-30.1,30.1c0,16.6,13.5,30.1,30.1,30.1s30.1-13.5,30.1-30.1C191.6,257.5,178.1,244,161.5,244z
		 M161.5,302.2c-15.5,0-28.1-12.6-28.1-28.1S146,246,161.5,246s28.1,12.6,28.1,28.1S177,302.2,161.5,302.2z"/>
	<path d="M173.8,281.2c-0.8-0.2-1.7-0.5-2.6-0.8c-2.7-0.9-3-2.2-2.9-2.8c0.3-0.2,0.5-0.5,0.7-0.7c4.1-4.4,3.6-12.4,3.3-17.2l0-0.7
		c-0.1-1.6-0.7-2.8-1.9-3.8c-2.8-2.3-7.8-2-8.8-1.9c-1-0.1-6-0.4-8.8,1.9c-1.2,1-1.8,2.3-1.9,3.8l0,0.7c-0.3,4.8-0.9,12.8,3.3,17.2
		c0.2,0.3,0.5,0.5,0.7,0.7c0,0.6-0.2,1.9-2.9,2.8c-0.9,0.3-1.8,0.6-2.6,0.8c-3.4,1-6.7,1.9-6.9,5.2c-0.3,3.3,0,6.1,0,6.2l0.1,0.9
		h38.2l0.1-0.9c0-0.1,0.3-2.9,0-6.2C180.5,283.1,177.2,282.2,173.8,281.2z M152.8,259.9l0-0.7c0.1-1,0.5-1.8,1.2-2.4
		c2.4-2,7.4-1.4,7.5-1.4l0.1-0.5l0.1,0.5c0,0,5.1-0.6,7.5,1.4c0.7,0.6,1.1,1.4,1.2,2.4l0,0.7c0.1,1.2,0.2,2.8,0.2,4.5
		c-0.7-1.4-1.4-2.4-1.5-2.5l-0.7-0.8l-0.8,0.6c-0.5,0.4-3.3,0.6-6,0.4l0,0.1l0-0.1c-2.7,0.2-7.3-0.9-8.9,2.2
		C152.6,262.7,152.7,261.1,152.8,259.9z M153.3,271.1L153.3,271.1c-0.4-3.1,1.1-5.8,2.2-6.6c1.1-0.7,4.5-0.3,6.1-0.4
		c1.5,0.1,4.6,0.2,6.3-0.4c0.8,1.3,2.3,4.2,1.9,7.3l0,0c-0.4,1.7-1.2,3.3-2.3,4.5c-1.4,1.5-3.4,2.3-6,2.3c-2.6,0-4.6-0.8-6-2.3
		C154.5,274.4,153.7,272.8,153.3,271.1z M161.6,279.9C161.6,279.9,161.6,279.9,161.6,279.9L161.6,279.9c1.2,0,2.2-0.1,3.1-0.4
		l-3.1,3.6l-3.1-3.6C159.4,279.7,160.4,279.9,161.6,279.9L161.6,279.9C161.5,279.9,161.5,279.9,161.6,279.9z M158.1,291.5h-7.6v-3.3
		h-2v3.3h-4.2c-0.1-1.1-0.1-2.9,0.1-4.9c0.1-1.8,2.1-2.5,5.5-3.4c0.9-0.2,1.8-0.5,2.7-0.8c0.2-0.1,0.4-0.1,0.6-0.2
		c1,3.2,2.4,5.1,4,5.7c0.3,0.1,0.6,0.2,0.9,0.2V291.5z M157.9,285.8l0.2,0.2c-0.1,0-0.2,0-0.3-0.1c-0.6-0.2-1.8-1.2-2.9-4.7
		c0.5-0.4,0.9-0.8,1.2-1.2l3.3,3.7L157.9,285.8z M163,291.5h-2.9v-5.4l1.4-1.9l1.4,1.9V291.5z M167,279.9c0.3,0.4,0.7,0.8,1.2,1.2
		c-1.1,3.6-2.3,4.5-2.9,4.7c-0.1,0-0.2,0.1-0.3,0.1l0.2-0.2l-1.6-2.1L167,279.9z M178.8,291.5h-4.2v-3.3h-2v3.3H165V288
		c0.3,0,0.6-0.1,0.9-0.2c1.6-0.6,3-2.5,4-5.7c0.2,0.1,0.4,0.2,0.6,0.2c0.9,0.3,1.8,0.6,2.7,0.8c3.4,1,5.4,1.6,5.5,3.4
		C178.9,288.6,178.9,290.4,178.8,291.5z"/>
</g>
<g>
	<path d="M252.9,257.9c-3.9,0-7,3.1-7,7s3.1,7,7,7s7-3.1,7-7S256.7,257.9,252.9,257.9z M252.9,269.9c-2.8,0-5-2.2-5-5s2.2-5,5-5
		s5,2.2,5,5S255.6,269.9,252.9,269.9z"/>
	<path d="M277.3,231.2h-18.1c-2.8,0-5,2.2-5,5v8.2h-4.9v3.9c-1.9,0.4-3.7,1.1-5.3,2.1l-2.7-2.7l-5.6,5.6l2.7,2.7
		c-1,1.6-1.7,3.4-2.1,5.3h-4v7.9h4.1c0.5,1.8,1.2,3.5,2.2,5l-3,3l5.6,5.6l3.2-3.2c1.5,0.9,3.1,1.5,4.8,1.9v4.7h7.9v-4.8
		c1.6-0.4,3.2-1.1,4.6-2l3.4,3.4l5.6-5.6l-3.4-3.4c0.9-1.4,1.6-3,2-4.6h4.7v-7.9h-4.6c-0.2-0.9-0.5-1.7-0.8-2.6l2.1-1.7h6.5
		c2.8,0,5-2.2,5-5v-15.8C282.3,233.4,280,231.2,277.3,231.2z M267.7,262.5l0.1,0.8h4.3v3.9h-4.3l-0.2,0.8c-0.4,1.9-1.2,3.8-2.3,5.4
		l-0.5,0.7l3.2,3.2l-2.7,2.7l-3.2-3.2l-0.7,0.5c-1.6,1.1-3.5,1.9-5.4,2.3l-0.8,0.2v4.4h-3.9v-4.3l-0.8-0.1c-2-0.3-3.9-1.1-5.6-2.2
		l-0.7-0.4l-2.9,2.9l-2.7-2.7l2.8-2.8l-0.5-0.7c-1.3-1.7-2.1-3.7-2.6-5.7l-0.2-0.8h-3.7v-3.9h3.6l0.1-0.8c0.4-2.2,1.2-4.2,2.4-6
		l0.5-0.7l-2.5-2.5l2.7-2.7l2.5,2.5l0.7-0.5c1.8-1.3,3.8-2.1,6-2.4l0.8-0.1v-3.6h2.9v5.6c0,2.8,2.2,5,5,5h2l0.2,7.7l5.7-4.7
		C267.3,260.9,267.5,261.6,267.7,262.5z M280.3,252c0,1.7-1.3,3-3,3h-7.2l-6.8,5.6l-0.1-5.6h-4c-1.7,0-3-1.3-3-3v-15.8
		c0-1.7,1.3-3,3-3h18.1c1.7,0,3,1.3,3,3V252z"/>
	<path d="M268.2,235.9c-1.6,0-3,0.4-4,1.3c-1,0.9-1.6,2.2-1.8,3.8l0,0.1l0,0.1c0.1,0.6,0.5,1.7,1.5,1.7c1,0,1.4-0.9,1.5-1.4
		c0.2-1,0.5-1.8,1-2.2c0.5-0.5,1.1-0.7,1.8-0.7c0.8,0,1.4,0.2,1.9,0.8c0.5,0.5,0.8,1.1,0.8,1.7c0,0.3-0.1,0.7-0.2,1
		c-0.1,0.2-0.4,0.6-1.3,1.3c-0.7,0.6-1.2,1.1-1.5,1.5c-0.4,0.5-0.7,1-0.9,1.4c-0.2,0.6-0.4,1.4-0.4,2.2c0,0.1,0,0.3,0,0.6
		c0,0.5,0.4,1.2,1.5,1.2c0.9,0,1.3-0.7,1.4-1.1l0-0.1c0-0.9,0.1-1.4,0.2-1.6c0.1-0.3,0.2-0.6,0.4-0.8c0.1-0.2,0.4-0.5,1.2-1.2
		c1-0.9,1.7-1.7,2.1-2.3c0.4-0.7,0.6-1.4,0.6-2.2c0-1.4-0.5-2.6-1.6-3.5C271.3,236.3,269.9,235.9,268.2,235.9z"/>
	<circle cx="268.3" cy="252.4" r="1.6"/>
</g>
<g>
	<path d="M365.7,261.7c0.8-1.6,3.3-4.2,5.6-5.9c0.9-0.7-0.9-1.5-1.2-1.7c-0.4-0.4-3.8,2.2-6.9,5.3c-2.3,2.3-3.5,6-3.5,8.3
		c0,3.3,2.7,6,6,6c3.3,0,6-2.7,6-6C371.7,264.4,369,261.7,365.7,261.7z"/>
	<path d="M379.8,262c0.8-1.6,3.3-4.2,5.6-5.9c0.9-0.7-0.9-1.5-1.2-1.7c-0.4-0.4-3.8,2.2-6.9,5.3c-2.3,2.3-3.5,6-3.5,8.3
		c0,3.3,2.7,6,6,6c3.3,0,6-2.7,6-6S383.1,262,379.8,262z"/>
</g>
<g>
	<path d="M495,258.7c-1-7.7-7.4-10.3-11.8-10.7c-2.5-5.1-8-6-11.8-5.6c-1.3-1.8-4-4-9.8-3.9c-7.1,0.1-11.5,6.3-13.2,9.1
		c-2.3,0.2-6.3,1-9.1,3.9c-2,2.1-3,4.7-3,7.9c0.1,8.7,6.3,12.3,9.5,12.9l1-4.9c-0.2,0-5.4-1.2-5.5-8.1c0-1.9,0.5-3.3,1.5-4.4
		c2.4-2.4,6.9-2.5,7.1-2.5h1.6l0.7-1.4c0-0.1,3.7-7.5,9.5-7.6c4.7-0.1,5.7,1.8,5.9,2.2l0.3,2.5l2.8-0.7c0.7-0.2,6.9-1.5,8.5,3.6
		l0.6,1.8l1.9,0c0.8,0,7.7,0.1,8.5,6.4c0.8,6.5-4.9,8.5-5.5,8.7l1.4,4.8C489.6,271.7,496.1,267.4,495,258.7z"/>
	<path d="M482.3,257.3H450c-0.6,0-1,0.4-1,1v6.6c0,0.6,0.4,1,1,1h32.3c0.6,0,1-0.4,1-1v-6.6C483.3,257.7,482.8,257.3,482.3,257.3z
		 M453.1,259.9c0,0.4-0.4,0.8-0.8,0.8s-0.8-0.4-0.8-0.8v-0.1c0-0.4,0.4-0.8,0.8-0.8s0.8,0.4,0.8,0.8V259.9z M476.9,263.8h-5.6
		c-0.4,0-0.8-0.4-0.8-0.8s0.4-0.8,0.8-0.8h5.6c0.4,0,0.8,0.4,0.8,0.8S477.4,263.8,476.9,263.8z"/>
	<path d="M482.3,267.4H450c-0.6,0-1,0.4-1,1v6.6c0,0.6,0.4,1,1,1h32.3c0.6,0,1-0.4,1-1v-6.6C483.3,267.8,482.8,267.4,482.3,267.4z
		 M453.1,270.1c0,0.4-0.4,0.8-0.8,0.8s-0.8-0.4-0.8-0.8v-0.1c0-0.4,0.4-0.8,0.8-0.8s0.8,0.4,0.8,0.8V270.1z M476.9,273.9h-5.6
		c-0.4,0-0.8-0.4-0.8-0.8s0.4-0.8,0.8-0.8h5.6c0.4,0,0.8,0.4,0.8,0.8S477.4,273.9,476.9,273.9z"/>
	<path d="M482.3,277.5H450c-0.6,0-1,0.4-1,1v6.6c0,0.6,0.4,1,1,1h13.6v5.8h-3.1v1.4h-11.1v3.6h11.1v1.4h3.1h4.6h3.1v-1.4h11.1v-3.6
		h-11.1v-1.4h-3.1v-5.8h14c0.6,0,1-0.4,1-1v-6.6C483.3,277.9,482.8,277.5,482.3,277.5z M453.1,280.2c0,0.4-0.4,0.8-0.8,0.8
		s-0.8-0.4-0.8-0.8v-0.1c0-0.4,0.4-0.8,0.8-0.8s0.8,0.4,0.8,0.8V280.2z M476.9,284h-5.6c-0.4,0-0.8-0.4-0.8-0.8s0.4-0.8,0.8-0.8h5.6
		c0.4,0,0.8,0.4,0.8,0.8S477.4,284,476.9,284z"/>
</g>
<g>
	<path d="M531.9,243.4v51.8h58.4v-51.8H531.9z M588.3,250.9H570v-5.5h18.3V250.9z M568,245.4v5.5h-34.1v-5.5H568z M533.9,293.1
		v-40.3h54.4v40.3H533.9z"/>
	<rect x="573.3" y="247.3" width="1.6" height="1.6"/>
	<rect x="578.2" y="247.3" width="1.6" height="1.6"/>
	<rect x="583.1" y="247.3" width="1.6" height="1.6"/>
	<path d="M578,261.1c0.1-1.1-0.4-2.1-1.4-3.2c-1.3-1.3-2.5-1.6-3.4-1.6c-1.3,0-2.2,0.7-2.3,0.7l-23.1,22.7l-4.4,10.2l10.8-4.2
		l22.7-22.5C577,263.3,577.9,262.5,578,261.1z M550.1,280.4l18.5-18.2l3.5,3.2l-18.4,18.2L550.1,280.4z M549,282.1l2.8,2.6l-4.7,1.8
		L549,282.1z M575.5,261.9l-2.1,2.1l-3.5-3.2l2.2-2.1c0.1-0.1,0.5-0.3,1.1-0.3c0.6,0,1.3,0.3,1.9,1c0.4,0.4,0.9,1,0.8,1.7
		C576,261.5,575.6,261.9,575.5,261.9z"/>
	<polygon points="554.3,270.5 553.8,270 556,267.6 554.5,266.2 552.4,268.5 550.2,266.4 552.4,264 550.9,262.6 548.8,265 
		546.5,262.8 550.6,259 558.5,266.7 560,265.3 550.7,256.2 543.6,262.7 552.9,271.9 	"/>
	<polygon points="567.6,275.7 575.4,283.4 571.3,287.2 569.4,285.4 571.4,283.3 569.9,281.9 568,284 565.8,281.8 567.8,279.7 
		566.4,278.3 564.4,280.4 563.4,279.5 562,280.9 571.2,290 578.3,283.4 569,274.3 	"/>
</g>
<g>
	<path d="M82.5,344.3c-5.7-6.3-12.4-7.6-17.1-7.6c-1.1,0-2.2,0.1-3.4,0.2c-0.8-0.5-3.1-1.5-6-1.5c-3.1,0-6.1,1.1-8.8,3.4
		c-7,5.8-3.4,13.6-2.4,15.4c-0.4,2.4-2,14.6,7.1,20.9c5.9,4.1,11.3,5,14.8,5c1.5,0,2.5-0.2,3-0.3c0.8,0.2,3.4,0.9,6.3,0.9
		c0,0,0,0,0,0c3.7,0,6.6-1.1,8.4-3.2c4.3-4.9,3.3-12.1,3.1-13.3C87.7,362.5,89,351.5,82.5,344.3z M85.4,364.3
		c0,0.1,1.4,7.2-2.6,11.8c-1.4,1.7-3.8,2.5-6.9,2.5c-3.1,0-5.9-0.9-6-0.9l-0.3-0.1l-0.3,0.1c0,0-1.1,0.3-2.8,0.3
		c-3.2,0-8.1-0.8-13.6-4.6c-8.8-6-6.2-19.1-6.2-19.2l0.1-0.4l-0.2-0.3c-0.2-0.3-4.8-7.8,1.8-13.1c2.4-1.9,4.9-2.9,7.5-2.9
		c3.1,0,5.3,1.4,5.3,1.4l0.3,0.2L62,339c1.1-0.2,2.3-0.3,3.4-0.3c4.2,0,10.4,1.2,15.6,6.9c6.3,6.9,4.4,18.2,4.4,18.3l0,0.2
		L85.4,364.3z"/>
	<path d="M66.5,356.3c-2.1-0.3-7.4-0.9-7.6-4.8c-0.2-4.3,5-4.8,6.9-4.6c1.9,0.2,5.8,2,6.2,4.2s3.1,1.5,3.1-0.6
		c0-2.1-1.6-5.2-9.8-5.3c-8.2-0.2-10.1,3.8-10.1,6.3c0,0-0.7,5.9,9.6,7.8c0,0,8.2,0.9,8.4,5.5c0.2,4.6-5.5,5.1-7.6,4.9
		c-2.1-0.2-6.4-2.1-6.8-4.5s-3.4-1.6-3.4,0.6s1.7,5.5,10.8,5.7s11.3-4.6,11.1-6.7C76.9,357.3,68.6,356.6,66.5,356.3z"/>
</g>
<polygon points="436.2,335.4 122.2,335.4 122.2,337.4 278.2,337.4 278.2,630.4 280.2,630.4 280.2,337.4 436.2,337.4 "/>
<g>
	<path d="M496.1,342c-16.3,0-29.6,13.3-29.6,29.6s13.3,29.6,29.6,29.6s29.6-13.3,29.6-29.6S512.4,342,496.1,342z M496.1,399.2
		c-15.2,0-27.6-12.4-27.6-27.6s12.4-27.6,27.6-27.6s27.6,12.4,27.6,27.6S511.3,399.2,496.1,399.2z"/>
	<circle cx="496.1" cy="371.6" r="9.6"/>
	<path d="M516.6,370.9c-6.6-7.8-13.7-11.7-21.1-11.4c-11.7,0.4-19.7,11-20,11.5l-0.4,0.6l0.5,0.6c6.4,7.6,13.3,11.4,20.4,11.4
		c0.2,0,0.4,0,0.7,0c11.7-0.4,19.7-11,20-11.5l0.4-0.6L516.6,370.9z M496.6,381.6c-6.5,0.2-12.9-3.2-18.9-10.1
		c1.9-2.2,8.8-9.7,18-10c6.5-0.2,12.9,3.2,18.9,10.1C512.7,373.8,505.8,381.3,496.6,381.6z"/>
</g>
<g>
	<rect x="604.5" y="369" transform="matrix(-0.7071 -0.7071 0.7071 -0.7071 774.5313 1065.7997)" width="7.1" height="7.1"/>
	<rect x="608.3" y="377.1" transform="matrix(0.7071 0.7071 -0.7071 0.7071 448.3662 -321.14)" width="7.1" height="7.1"/>
	<rect x="612.4" y="385.9" transform="matrix(0.7071 0.7071 -0.7071 0.7071 455.7536 -321.4655)" width="7.1" height="7.1"/>
	<rect x="624.3" y="390.1" transform="matrix(-0.7071 -0.7071 0.7071 -0.7071 792.3029 1113.4148)" width="5" height="5"/>
	<rect x="620.9" y="382.6" transform="matrix(0.7071 0.7071 -0.7071 0.7071 454.9113 -328.0248)" width="5" height="5"/>
	<rect x="617.4" y="374.9" transform="matrix(0.7071 0.7071 -0.7071 0.7071 448.4061 -327.8199)" width="5" height="5"/>
	<rect x="613.8" y="367.5" transform="matrix(-0.7071 -0.7071 0.7071 -0.7071 790.4122 1067.2944)" width="5" height="5"/>
	<rect x="622" y="366.4" transform="matrix(-0.7071 0.7071 -0.7071 -0.7071 1325.2524 187.4574)" width="3.7" height="3.7"/>
	<rect x="625.3" y="373.6" transform="matrix(-0.7071 0.7071 -0.7071 -0.7071 1336.0714 197.4854)" width="3.7" height="3.7"/>
	<rect x="629" y="381.1" transform="matrix(0.7071 -0.7071 0.7071 0.7071 -86.0249 558.2159)" width="3.7" height="3.7"/>
	<path d="M615.9,397.2l-7.8-7.8l2.3-2.3l-6.4-6.4l2.2-2.2l-6-6l7.8-7.8l3.6,3.6l4.7-4.7l3.4,3.4l2.7-2.7c-3.3-2-7.2-3.2-11.4-3.2
		c-11.9,0-21.6,9.4-21.6,21c0,11.6,9.7,21,21.6,21c5.6,0,10.7-2.1,14.5-5.5l-5-5L615.9,397.2z"/>
</g>
</svg>
